<svg width="77" height="106" viewBox="0 0 77 106" fill="none" xmlns="http://www.w3.org/2000/svg">
<path d="M60.5219 98.6881V80.5508C60.5219 74.6553 57.0277 67.656 52.3326 63.5816C49.7051 61.3006 47.2763 58.5598 45.1635 55.5339L23.2047 42.6207C21.0919 43.1542 18.6541 43.0346 16.0356 42.2252C14.0222 41.5998 12.2254 41.7838 10.8349 42.6483C8.98394 43.8072 1.60718 46.9527 1.60718 50.3281L7.84627 67.702C7.84627 69.6795 9.21869 72.0984 10.9162 73.0917L51.0775 105.338C51.7457 105.733 58.7522 100.978 59.2579 100.849C60.0253 100.647 60.531 99.8837 60.531 98.6881H60.5219Z" fill="#117074"/>
<path d="M49.1453 40.5513C50.0663 40.2478 50.7074 39.2637 50.8789 37.7921C51.2311 34.8121 50.4365 33.2853 49.0912 32.0069C48.6939 22.0921 45.3712 11.9014 34.1751 5.32526C22.9791 -1.26007 19.6564 5.02175 19.2591 14.4675C17.9137 14.164 17.047 15.3136 17.4713 18.1556C17.8415 20.6021 18.925 23.0762 20.5502 24.5294C21.6698 28.282 23.3854 32.1357 25.3356 35.5663C26.8164 38.1784 26.8796 40.9744 25.3718 41.7929C24.7126 42.1516 24.0174 42.4184 23.277 42.6115C28.0534 50.9995 31.9269 59.8934 37.6694 60.0038C39.1682 60.0314 43.8272 56.1593 45.0732 55.4327C44.387 54.4486 43.7279 53.4276 43.1139 52.3883C41.579 49.7855 41.5158 46.8331 43.0056 45.9594C44.7572 44.9293 46.1206 43.4577 47.2312 41.3791L49.1363 40.5513H49.1453Z" fill="url(#paint0_linear_230_682)"/>
<path d="M34.175 84.0274L43.7639 66.7179L51.2039 61.9352L45.1544 54.8808L37.8138 59.6451L34.175 81.1486L23.9541 44.6533L23.1957 41.9677L17.1462 41.9125L10.1035 46.3548L34.175 84.0274Z" fill="#815D00"/>
<path d="M19.259 14.4675C21.2815 15.654 21.9858 19.149 21.9858 19.149C21.9858 19.149 22.0761 16.123 22.0761 13.9248C22.0761 11.7267 22.9339 3.26506 29.2271 10.1079C35.6197 17.052 41.7685 35.6583 41.7866 36.3941C41.7866 36.7252 49.1001 32.0069 49.1001 32.0069V22.3405C49.1001 16.9508 43.5202 3.51339 30.9246 0.882932C25.6065 -0.229953 22.7081 -0.367914 21.128 0.919722C20.8662 1.13126 13.986 5.27929 13.7964 5.56441C12.4511 7.60623 19.268 7.74419 19.268 14.4583L19.259 14.4675Z" fill="#120028"/>
<path d="M45.1003 68.0607C42.4457 65.7522 39.9808 62.9746 37.8499 59.9118C31.8275 63.4068 22.0671 57.6677 16.0447 47.0907C13.9138 47.6425 11.4489 47.5321 8.79436 46.7136C4.09923 45.2696 0.60498 48.1576 0.60498 54.0531V72.1904C0.60498 74.1678 1.9774 76.5867 3.67487 77.58L50.2198 104.951C51.9172 105.945 53.2897 105.154 53.2897 103.167V85.0299C53.2897 79.1344 49.7954 72.1352 45.1003 68.0607Z" fill="white"/>
<g style="mix-blend-mode:screen">
<path d="M53.5785 102.781V84.6436C53.5785 78.7481 50.0842 71.7489 45.3891 67.6744C42.7617 65.3935 40.3328 62.6526 38.22 59.6267L27.2407 85.315L16.2613 46.7135C14.1485 47.247 11.7106 47.1274 9.09221 46.3181C4.39709 44.8741 0.902832 47.7621 0.902832 53.6576V71.7948C0.902832 73.7723 2.27525 76.1912 3.97272 77.1845L50.5176 104.556C52.2151 105.549 53.5875 104.758 53.5875 102.772L53.5785 102.781Z" fill="white"/>
</g>
<path d="M53.2897 103.167V85.03C53.2897 79.1344 49.7954 72.1352 45.1003 68.0608C42.4728 65.7798 40.044 63.039 37.9312 60.013L26.9518 85.7014L15.9725 47.0999C13.8597 47.6333 11.4218 47.5138 8.80339 46.7044C4.10827 45.2604 0.614014 48.1484 0.614014 54.0439V72.1812C0.614014 74.1586 1.98643 76.5776 3.6839 77.5709L50.2288 104.942C51.9263 105.936 53.2987 105.145 53.2987 103.158L53.2897 103.167Z" fill="#60E8E1"/>
<path d="M26.9519 88.5065L43.9718 66.4143L37.9223 59.3507L37.1729 61.1534L26.9519 85.6277L16.722 49.1232L15.9726 46.4376L9.9231 46.3916L26.9519 88.5065Z" fill="#FAB502"/>
<path style="mix-blend-mode:screen" d="M38.2292 59.9118C37.543 58.9276 36.8839 57.9067 36.2699 56.8674C34.735 54.2646 34.6718 51.3122 36.1616 50.4384C38.1118 49.298 39.8274 47.4677 40.947 45.0304C42.5722 45.4902 43.7731 44.3774 44.0259 42.2804C44.378 39.3004 43.5835 37.7736 42.2381 36.4952C41.8409 26.5804 38.5182 16.3897 27.3221 9.81355C16.126 3.23741 12.8033 9.51003 12.4061 18.9558C11.0607 18.6522 10.1939 19.8019 10.6183 22.6439C10.9885 25.0904 12.072 27.5645 13.6972 29.0177C14.8168 32.7702 16.5323 36.624 18.4826 40.0546C19.9634 42.6666 20.0266 45.4627 18.5187 46.2812C17.8596 46.6399 17.1644 46.9066 16.424 47.0998C22.4464 57.6768 32.2068 63.416 38.2292 59.921V59.9118Z" fill="url(#paint1_radial_230_682)"/>
<path d="M37.8498 59.9118C37.1636 58.9276 36.5045 57.9067 35.8905 56.8674C34.3556 54.2646 34.2924 51.3122 35.7822 50.4384C37.7324 49.298 39.448 47.4677 40.5676 45.0304C42.1928 45.4902 43.3937 44.3774 43.6465 42.2804C43.9986 39.3004 43.2041 37.7736 41.8587 36.4952C41.4615 26.5804 38.1388 16.3897 26.9427 9.81354C15.7466 3.22821 12.4239 9.51003 12.0267 18.9558C10.6813 18.6522 9.81453 19.8019 10.2389 22.6439C10.6091 25.0904 11.6926 27.5645 13.3178 29.0177C14.4374 32.7702 16.1529 36.624 18.1032 40.0546C19.584 42.6666 19.6472 45.4627 18.1393 46.2812C17.4802 46.6399 16.785 46.9066 16.0446 47.0998C22.067 57.6768 31.8274 63.416 37.8498 59.921V59.9118Z" fill="url(#paint2_linear_230_682)"/>
<path d="M12.0267 18.9466C14.0492 20.1331 14.7535 23.6281 14.7535 23.6281C14.7535 23.6281 14.8437 20.6021 14.8437 18.404C14.8437 16.2058 15.7015 7.74418 21.9948 14.587C28.3874 21.5311 29.7056 24.8421 33.561 26.3321C36.7754 27.583 39.1681 29.1097 39.1681 31.9609C39.1681 34.8121 39.2042 36.6792 39.2042 36.6792C39.2042 36.6792 40.6489 35.5111 41.8588 36.4768V26.8104C41.8588 21.4207 36.2788 7.98331 23.6832 5.35285C11.3675 2.77758 12.0267 5.41723 12.0267 18.9374V18.9466Z" fill="#120028"/>
<path style="mix-blend-mode:screen" d="M24.1618 5.16897C18.32 3.94572 15.3946 3.90893 13.9409 5.63804C15.5029 4.30442 18.4103 4.43318 23.7826 5.55526C36.3782 8.18572 41.9582 21.6323 41.9582 27.0128V36.0722C42.0846 36.1274 42.211 36.1918 42.3374 36.293V26.6265C42.3374 21.2368 36.7574 7.79943 24.1618 5.16897Z" fill="url(#paint3_radial_230_682)"/>
<defs>
<linearGradient id="paint0_linear_230_682" x1="38.2743" y1="37.7737" x2="56.3709" y2="73.4596" gradientUnits="userSpaceOnUse">
<stop offset="0.04" stop-color="#FF9E6E"/>
<stop offset="0.08" stop-color="#FFAD73"/>
<stop offset="0.13" stop-color="#FFC17A"/>
<stop offset="0.21" stop-color="#FFAB72"/>
<stop offset="0.25" stop-color="#FF9E6E"/>
<stop offset="0.53" stop-color="#FFBE78"/>
<stop offset="1" stop-color="#FFE585"/>
</linearGradient>
<radialGradient id="paint1_radial_230_682" cx="0" cy="0" r="1" gradientUnits="userSpaceOnUse" gradientTransform="translate(43.5564 44.5521) scale(9.33607 9.51011)">
<stop stop-color="white"/>
<stop offset="1"/>
</radialGradient>
<linearGradient id="paint2_linear_230_682" x1="10.1938" y1="58.5414" x2="35.6269" y2="21.8669" gradientUnits="userSpaceOnUse">
<stop offset="0.04" stop-color="#FF9E6E"/>
<stop offset="0.3" stop-color="#FFAD72"/>
<stop offset="0.82" stop-color="#FFD580"/>
<stop offset="1" stop-color="#FFE585"/>
</linearGradient>
<radialGradient id="paint3_radial_230_682" cx="0" cy="0" r="1" gradientUnits="userSpaceOnUse" gradientTransform="translate(28.1346 20.2895) scale(14.9702 15.2493)">
<stop stop-color="white"/>
<stop offset="1"/>
</radialGradient>
</defs>
</svg>
