<svg width="92" height="108" viewBox="0 0 92 108" fill="none" xmlns="http://www.w3.org/2000/svg">
<g clip-path="url(#clip0_230_742)">
<path style="mix-blend-mode:multiply" d="M60.5502 107.02C77.7318 107.02 91.6602 99.7535 91.6602 90.7899C91.6602 81.8264 77.7318 74.5599 60.5502 74.5599C43.3686 74.5599 29.4402 81.8264 29.4402 90.7899C29.4402 99.7535 43.3686 107.02 60.5502 107.02Z" fill="url(#paint0_radial_230_742)"/>
<path d="M85.05 74.03C85.05 48.84 67.25 18.14 45.3 5.45995C34.71 -0.650049 25.09 -1.46005 17.96 2.16995L17.94 2.12995L11.78 5.55995L14.64 10.47C13.31 14.26 12.59 18.72 12.59 23.79C12.59 48.9799 30.39 79.68 52.34 92.36C56.85 94.96 61.18 96.6 65.22 97.35L68.14 102.36L72.26 100.14C80.12 96.34 85.04 87.26 85.04 74.01L85.05 74.03Z" fill="url(#paint1_linear_230_742)"/>
<path style="mix-blend-mode:screen" d="M68.9278 102C84.3568 92.9805 84.1998 64.0045 68.5772 37.2803C52.9546 10.5561 27.7824 -3.79628 12.3534 5.2233C-3.0756 14.2429 -2.91863 43.2189 12.704 69.9431C28.3266 96.6672 53.4988 111.02 68.9278 102Z" fill="url(#paint2_radial_230_742)"/>
<path d="M68.0418 102.484C83.4708 93.4641 83.3138 64.4881 67.6912 37.7639C52.0686 11.0398 26.8964 -3.31264 11.4674 5.70694C-3.96158 14.7265 -3.80462 43.7025 11.818 70.4267C27.4406 97.1509 52.6129 111.503 68.0418 102.484Z" fill="url(#paint3_linear_230_742)"/>
<path d="M63.8935 95.3872C77.0577 87.6916 76.9221 62.966 63.5906 40.1611C50.2592 17.3561 28.7802 5.10763 15.6159 12.8033C2.45173 20.4989 2.58732 45.2245 15.9188 68.0294C29.2503 90.8344 50.7293 103.083 63.8935 95.3872Z" fill="white"/>
<path d="M69.38 90.15C72.11 86.12 73.68 80.56 73.68 73.67C73.68 73.57 73.68 73.46 73.68 73.36L39.76 54.09L69.39 90.15H69.38Z" fill="#CDFAF6"/>
<path d="M41.1401 92.33C22.4001 81.51 7.21008 55.31 7.21008 33.81C7.21008 23.05 11.0201 15.5 17.1701 12.01C10.2101 15.12 5.83008 22.96 5.83008 34.5C5.83008 56 21.0201 82.2 39.7501 93.01C49.1001 98.41 57.5701 98.96 63.7101 95.47C57.7101 98.15 49.8001 97.32 41.1301 92.32L41.1401 92.33Z" fill="#125A5D"/>
<path d="M41.6101 55.16C41.6101 56.34 40.7801 56.81 39.7501 56.22C38.7201 55.63 37.8901 54.2 37.8901 53.02C37.8901 51.84 38.7201 51.37 39.7501 51.96C40.7701 52.55 41.6101 53.98 41.6101 55.16Z" fill="url(#paint4_linear_230_742)"/>
<path d="M40.27 21.02C39.99 20.86 39.76 20.42 39.76 20.04V18.31C39.76 17.93 39.99 17.76 40.27 17.92C40.55 18.08 40.78 18.52 40.78 18.9V20.63C40.78 21.01 40.55 21.18 40.27 21.02Z" fill="#17B5B5"/>
<path d="M40.27 90.26C39.99 90.1 39.76 89.66 39.76 89.28V87.55C39.76 87.17 39.99 87 40.27 87.16C40.55 87.32 40.78 87.76 40.78 88.14V89.87C40.78 90.25 40.55 90.42 40.27 90.26Z" fill="#17B5B5"/>
<path d="M11.45 37.45C11.45 37.78 11.25 37.93 11.01 37.78L9.20001 36.73C8.96001 36.59 8.76001 36.21 8.76001 35.88C8.76001 35.55 8.96001 35.4 9.20001 35.55L11.01 36.6C11.25 36.74 11.45 37.12 11.45 37.45Z" fill="#17B5B5"/>
<path d="M71.8001 72.2899C71.8001 72.6199 71.6001 72.7699 71.3601 72.6199L69.5501 71.5699C69.3101 71.4299 69.1101 71.0499 69.1101 70.7199C69.1101 70.3899 69.3101 70.2399 69.5501 70.3899L71.3601 71.4399C71.6001 71.5799 71.8001 71.9599 71.8001 72.2899Z" fill="#17B5B5"/>
<path d="M25.86 17.13C25.61 17.15 25.3 16.87 25.16 16.51L24.32 14.37C24.18 14.01 24.26 13.69 24.51 13.67C24.76 13.65 25.07 13.93 25.21 14.29L26.05 16.43C26.19 16.79 26.11 17.11 25.86 17.13Z" fill="#17B5B5"/>
<path d="M56.0299 94.52C55.7799 94.54 55.4699 94.26 55.3299 93.9L54.4899 91.76C54.3499 91.4 54.4299 91.08 54.6799 91.06C54.9299 91.04 55.2399 91.32 55.3799 91.68L56.2199 93.82C56.3599 94.18 56.2799 94.5 56.0299 94.52Z" fill="#17B5B5"/>
<path d="M15.3099 56.22C15.4499 56.58 15.3699 56.9 15.1199 56.92L13.6699 57.04C13.4199 57.06 13.1099 56.78 12.9699 56.42C12.8299 56.06 12.9099 55.74 13.1599 55.72L14.6099 55.6C14.8599 55.58 15.1699 55.86 15.3099 56.22Z" fill="#17B5B5"/>
<path d="M67.5699 51.7699C67.7099 52.1299 67.6299 52.4499 67.3799 52.4699L65.9299 52.5899C65.6799 52.6099 65.3699 52.3299 65.2299 51.9699C65.0899 51.6099 65.1699 51.2899 65.4199 51.2699L66.8699 51.1499C67.1199 51.1299 67.4299 51.4099 67.5699 51.7699Z" fill="#17B5B5"/>
<path d="M15.3099 23.1399C15.1699 23.3399 14.8499 23.2599 14.6099 22.9499L13.1599 21.1599C12.9099 20.8599 12.8299 20.4499 12.9699 20.2499C13.1099 20.0499 13.4299 20.1299 13.6699 20.4399L15.1199 22.2299C15.3699 22.5299 15.4499 22.9399 15.3099 23.1399Z" fill="#17B5B5"/>
<path d="M67.5699 87.94C67.4299 88.14 67.1099 88.06 66.8699 87.75L65.4199 85.96C65.1699 85.66 65.0899 85.25 65.2299 85.05C65.3699 84.85 65.6899 84.93 65.9299 85.24L67.3799 87.03C67.6299 87.33 67.7099 87.74 67.5699 87.94Z" fill="#17B5B5"/>
<path d="M25.86 74.41C26.11 74.71 26.19 75.12 26.05 75.32L25.21 76.5C25.07 76.7 24.75 76.62 24.51 76.31C24.26 76.01 24.18 75.6 24.32 75.4L25.16 74.22C25.3 74.02 25.62 74.1 25.86 74.41Z" fill="#17B5B5"/>
<path d="M56.0299 31.86C56.2799 32.16 56.3599 32.57 56.2199 32.77L55.3799 33.95C55.2399 34.15 54.9199 34.07 54.6799 33.76C54.4299 33.46 54.3499 33.05 54.4899 32.85L55.3299 31.67C55.4699 31.47 55.7899 31.55 56.0299 31.86Z" fill="#17B5B5"/>
<path d="M40.6501 55.9599L38.8601 54.9199V26.1799L40.6501 27.2199V55.9599Z" fill="#FAB502"/>
<path d="M40.07 53.71L39.52 54.48L63.76 84.54L64.31 83.76L40.07 53.71Z" fill="#FAB502"/>
<path d="M40.6801 54.6299C40.6801 55.2199 40.2601 55.4499 39.7501 55.1599C39.2401 54.8699 38.8201 54.1499 38.8201 53.5599C38.8201 52.9699 39.2401 52.7399 39.7501 53.0299C40.2601 53.3299 40.6801 54.0399 40.6801 54.6299Z" fill="#CDFAF6"/>
<path d="M46.8902 51.1999L45.9102 49.5199L41.9602 51.7699L42.2202 52.2099L17.7102 66.1799L18.1802 66.9799L42.6802 53.0099L42.9402 53.4499L46.8902 51.1999Z" fill="#FAB502"/>
</g>
<defs>
<radialGradient id="paint0_radial_230_742" cx="0" cy="0" r="1" gradientUnits="userSpaceOnUse" gradientTransform="translate(58.1492 85.6771) scale(31.049 16.288)">
<stop offset="0.19" stop-color="#AFB6E5"/>
<stop offset="1" stop-color="white"/>
</radialGradient>
<linearGradient id="paint1_linear_230_742" x1="85.3432" y1="35.0717" x2="11.2394" y2="84.7638" gradientUnits="userSpaceOnUse">
<stop stop-color="#30D1CF"/>
<stop offset="0.33" stop-color="#17B5B5"/>
<stop offset="0.63" stop-color="#17B5B5"/>
<stop offset="0.69" stop-color="#17B5B5"/>
<stop offset="0.79" stop-color="#17B5B5"/>
<stop offset="0.91" stop-color="#117074"/>
<stop offset="1" stop-color="#117074"/>
</linearGradient>
<radialGradient id="paint2_radial_230_742" cx="0" cy="0" r="1" gradientUnits="userSpaceOnUse" gradientTransform="translate(40.6408 53.6139) scale(45.77 45.77)">
<stop stop-color="white"/>
<stop offset="1"/>
</radialGradient>
<linearGradient id="paint3_linear_230_742" x1="59.0119" y1="22.4038" x2="15.6719" y2="93.7338" gradientUnits="userSpaceOnUse">
<stop stop-color="#30D1CF"/>
<stop offset="0.33" stop-color="#17B5B5"/>
<stop offset="0.63" stop-color="#17B5B5"/>
<stop offset="0.69" stop-color="#17B5B5"/>
<stop offset="0.79" stop-color="#17B5B5"/>
<stop offset="0.91" stop-color="#117074"/>
<stop offset="1" stop-color="#117074"/>
</linearGradient>
<linearGradient id="paint4_linear_230_742" x1="37.9001" y1="54.09" x2="41.6101" y2="54.09" gradientUnits="userSpaceOnUse">
<stop offset="0.1" stop-color="#052B2E"/>
<stop offset="1" stop-color="#125A5D"/>
</linearGradient>
<clipPath id="clip0_230_742">
<rect width="91.66" height="107.02" fill="white"/>
</clipPath>
</defs>
</svg>
