<svg width="112" height="95" viewBox="0 0 112 95" fill="none" xmlns="http://www.w3.org/2000/svg">
<g clip-path="url(#clip0_230_721)">
<path d="M98.1114 56.5499C103.736 33.1932 89.3614 9.69915 66.0048 4.07446C42.6481 -1.55023 19.1541 12.8244 13.5294 36.1811C7.90468 59.5377 22.2793 83.0318 45.636 88.6564C68.9926 94.2811 92.4867 79.9065 98.1114 56.5499Z" fill="#30D1CF"/>
<path d="M20.9001 42.83C20.9001 42.83 22.1201 43.14 22.9001 43.08C23.6801 43.02 24.0301 43.27 25.2801 44.24C26.5301 45.21 27.6001 43.99 27.6001 43.99C27.6001 43.99 25.7501 43.02 24.4101 42.36C23.0601 41.7 20.9001 42.83 20.9001 42.83ZM39.2801 24.39C38.7501 24.14 38.0901 25.02 37.7801 25.49C37.4701 25.96 37.3401 26.49 37.1201 26.65C36.9001 26.81 38.5001 26.99 39.0001 26.96C39.5001 26.93 39.6601 26.77 40.0601 27.12C40.4701 27.46 41.0901 27.25 41.0901 27.03C41.0901 26.81 40.6501 26.28 40.6201 25.93C40.5901 25.59 39.8401 25.62 39.4001 25.43C38.9601 25.24 39.6801 24.58 39.2701 24.4L39.2801 24.39ZM26.7901 41.96C26.7301 41.74 25.8201 42.3 25.6601 41.74C25.5001 41.18 25.1301 40.43 25.1301 40.43L24.5001 40.4C24.4701 40.93 24.9701 42.28 25.9701 42.65C26.9701 43.03 26.8501 42.18 26.7801 41.96H26.7901ZM29.8301 45.25C30.9601 45.25 32.8001 45 33.6501 45.41C34.5001 45.82 35.4001 46.63 35.4001 46.63C35.4001 46.63 35.1501 45.38 32.6801 44.91C30.2101 44.44 28.3601 44.1 28.3601 44.1C28.3601 44.1 28.7701 44.54 28.5201 44.76C28.2701 44.98 27.5801 45.23 27.5801 45.23L29.3601 45.67C29.3601 45.67 29.4901 45.26 29.8301 45.26V45.25ZM50.7501 59.31C49.9701 58.72 49.2201 58.09 48.1201 58.09C47.0201 58.09 45.5801 57.06 45.2101 56.77C44.8301 56.49 43.8301 55.96 43.4601 55.14C43.0801 54.33 41.0801 52.98 40.6401 52.6C40.2001 52.22 38.9201 52.63 37.3501 51.6C35.7801 50.57 37.0401 50.32 35.1901 50.03C33.3401 49.75 32.7801 50 31.7801 49.9C30.7801 49.81 30.1501 48.9 29.3401 48.9C28.5301 48.9 26.7101 50.53 26.3001 50.84C25.8901 51.15 25.8001 51 25.0801 50.56C24.3601 50.12 23.8601 51.06 22.6101 50.47C21.3601 49.87 23.1101 47.18 23.1401 46.74C23.1701 46.3 22.5801 46.43 21.5101 46.55C20.4501 46.68 18.8201 46.77 18.8201 46.77C18.8201 46.77 18.9101 45.86 19.0401 45.11C19.1701 44.36 20.1401 43.61 19.6701 42.98C19.2001 42.35 17.8901 42.89 17.1701 43.29C16.4501 43.7 16.5401 45.51 14.6001 45.07C12.6601 44.63 13.1901 41.44 13.2901 40.84C13.3801 40.25 13.2601 39.81 14.0101 39.12C14.7601 38.43 16.5801 38.71 17.4501 38.68C18.3201 38.65 19.1101 37.99 19.8301 37.8C20.5501 37.61 21.1801 38.33 21.9901 39.33C22.8001 40.33 22.2101 41.33 22.2101 41.33C22.2101 41.33 23.5901 41.42 24.1501 40.77C24.7101 40.11 23.7101 37.61 23.9601 36.89C24.2101 36.17 27.0901 34.98 27.3401 34.57C27.5901 34.16 27.1801 33.38 27.8701 32.03C28.5601 30.68 30.3401 31.12 30.5001 31.12C30.6601 31.12 30.5301 30.68 30.2201 30.24C29.9101 29.8 30.4101 29.43 30.9101 29.18C31.4101 28.93 33.2901 28.27 33.2901 28.27C33.2901 28.27 32.7601 28.65 32.7901 29.18C32.8201 29.71 33.4801 29.12 34.3601 28.71C35.2401 28.3 36.7401 27.8 36.7401 27.8L36.3601 27.27C36.3601 27.27 35.4801 27.49 34.7601 27.36C34.0401 27.23 34.0101 26.86 33.8201 26.14C33.6301 25.42 30.6601 26.48 30.6601 26.48C30.6601 26.48 31.6001 25.7 32.3201 25.35C33.0401 25 35.9501 25.26 36.4801 25.22C37.0101 25.19 37.6101 24.37 38.4501 24.34C39.3001 24.31 39.4501 23.68 39.3001 23.24C39.1401 22.8 37.8601 22.39 36.2301 21.33C34.6001 20.27 33.6901 18.61 33.6901 18.61C33.6901 18.61 33.1901 19.39 32.6601 19.74C32.1301 20.08 31.4101 19.87 30.7501 19.05C30.0901 18.24 28.7801 17.67 27.9601 17.58C27.1501 17.49 25.2001 17.55 25.2001 17.55C25.2001 17.55 25.2601 17.96 25.3301 18.61C25.3901 19.27 24.5801 19.8 24.5801 19.8C24.5801 19.8 26.0801 20.36 26.2401 21.15C26.4001 21.94 24.2001 22.34 24.2001 22.34C24.2001 22.34 24.7001 23.97 24.3901 24C24.0801 24.03 23.0101 22.72 22.7901 22.06C22.6301 21.57 21.4401 21.58 20.1701 21.42C15.2501 28.46 12.3401 37.01 12.3301 46.25C13.4401 46.57 14.4801 46.77 14.9301 46.73C15.9901 46.64 15.5601 47.29 17.5901 48.08C19.6301 48.86 20.3501 49.71 20.8801 50.58C21.4101 51.46 23.3201 52.27 24.1701 51.71C25.0201 51.15 25.2301 51.71 25.6701 53.03C26.1101 54.35 25.0401 55.13 24.1701 56.04C23.2901 56.95 23.3201 58.89 23.3201 59.77C23.3201 60.65 23.9201 60.62 24.3801 61.81C24.8501 63 25.9101 65.5 27.4201 66.48C28.9201 67.45 30.1801 68.2 30.2701 69.58C30.3601 70.96 29.2401 75.28 29.3601 76.19C29.4901 77.1 29.1701 78.38 28.5101 79.35C28.3501 79.59 28.2301 79.76 28.1501 79.92C29.8801 81.35 31.7201 82.63 33.6601 83.78C33.7901 83.68 33.9401 83.58 34.0801 83.48C34.5801 83.14 33.4201 82.95 33.4201 82.6C33.4201 82.25 33.7001 82.38 34.6701 82.57C35.6401 82.76 35.8001 81.91 36.1701 81.38C36.5501 80.85 38.0501 80.69 38.6701 80.25C39.3001 79.81 40.1701 78.65 41.1101 78.12C42.0501 77.59 42.1101 76.59 43.1801 75.33C44.2401 74.08 43.5601 73.92 44.1801 72.7C44.8101 71.48 47.2201 71.01 48.1601 70.73C49.1001 70.45 49.2901 69.2 49.5101 68.54C49.7301 67.88 50.5101 67.94 50.2001 67.73C49.8901 67.51 49.8601 66.51 49.8601 65.48C49.8601 64.45 51.0201 63.73 51.9601 62.66C52.9001 61.6 52.4901 60.91 52.1201 60.12C51.7401 59.34 51.5301 59.87 50.7401 59.27L50.7501 59.31ZM23.9501 18.13C24.0601 18.26 24.5301 17.98 24.5401 17.73C24.5501 17.48 24.2201 17.54 24.0401 17.64C23.8601 17.73 23.7701 17.87 23.8401 17.97C23.9101 18.07 23.8501 18.01 23.9401 18.13H23.9501ZM24.2301 21.31C24.0701 21.31 24.0401 21.54 24.0701 21.65C24.1001 21.76 24.3601 21.55 24.6101 21.55C24.8601 21.55 25.5201 21.45 25.6001 21.52C25.6801 21.59 25.9801 21.28 25.6601 21.24C25.3401 21.2 24.9201 21.49 24.8101 21.33C24.7101 21.17 24.5901 21.05 24.4701 21.11C24.3501 21.17 24.4701 21.3 24.2201 21.31H24.2301ZM25.5701 16.39C26.6301 16.26 28.6701 16.73 29.3901 17.14C30.1101 17.55 32.9301 18.02 32.9901 17.92C33.0501 17.83 30.9501 16.73 30.9501 16.73C30.9501 16.73 32.8901 17.23 33.5201 17.23C34.1501 17.23 34.0501 16.67 33.6101 16.42C33.1701 16.17 31.5701 15.48 32.1401 15.2C32.7001 14.92 33.4501 15.79 34.1401 15.98C34.8301 16.17 35.6401 15.2 35.6701 14.98C35.7001 14.76 34.1701 14.35 33.0101 13.92C32.5701 13.75 32.2801 13.57 32.0401 13.38C31.8601 13.24 32.2501 13.05 32.0901 12.89C31.9001 12.71 31.1601 12.57 30.8801 12.38C30.6401 12.22 30.0601 12.02 29.3601 11.82C28.1201 12.77 26.9401 13.79 25.8101 14.86C25.8701 14.95 25.9101 15.05 25.9001 15.13C25.8701 15.51 24.4901 16.51 25.5601 16.38L25.5701 16.39ZM79.9901 30.92C79.5801 31.01 79.9301 30.95 79.5801 31.01C79.2401 31.07 79.3001 30.85 79.2401 31.07C79.1801 31.29 79.4301 31.48 79.4301 31.76C79.4301 32.04 79.2401 32.32 79.4601 32.32C79.6801 32.32 80.0201 32.29 80.1501 32.13C80.2801 31.97 80.2801 31.6 80.2801 31.44C80.2801 31.28 80.3101 31.28 80.2501 30.97C80.1901 30.66 80.0301 30.53 80.0301 30.53C80.0601 30.34 80.5001 30.06 80.1201 30.03C79.7401 30 79.5901 30.12 79.5901 30.22C79.5901 30.32 79.8101 30.63 79.8101 30.63L80.0001 30.66C80.0001 30.66 80.4101 30.82 80.0001 30.91L79.9901 30.92ZM90.7901 34.46C90.7301 34.3 89.9801 34.18 89.8501 34.21C89.7201 34.24 88.9401 34.52 88.9401 34.52C89.1601 34.52 89.6901 34.49 90.0401 34.61C90.3901 34.73 90.8501 34.61 90.7901 34.45V34.46ZM95.4601 34.68C95.4601 34.68 95.8001 34.4 95.7101 34.4C95.6201 34.4 95.1801 34.46 94.9901 34.46C94.8001 34.46 94.5501 34.68 94.5501 34.68L94.3601 34.87C94.6101 35 94.9901 35.03 95.1101 35C95.2301 34.97 95.4501 34.69 95.4501 34.69L95.4601 34.68ZM67.9101 23.78C67.7501 23.94 67.4701 23.81 67.6601 24.19C67.8801 24.63 69.0101 24.16 69.4801 24.13C69.9501 24.1 70.5101 23.82 70.5101 23.57C70.5101 23.32 70.5101 22.91 70.6001 22.82C70.6901 22.73 70.6001 22.26 70.3201 22.16C70.0401 22.07 69.0401 21.97 68.8501 22.13C68.6601 22.29 68.5701 22.57 68.2901 22.54C68.0101 22.51 67.2601 22.67 67.5401 23.07C67.8201 23.48 68.0701 23.63 67.9201 23.79L67.9101 23.78ZM60.1001 12.73C60.1001 12.73 58.9901 12.56 58.3301 12.65C57.6701 12.74 56.9801 12.93 56.8301 12.79C56.6701 12.65 57.3001 12.59 57.4401 12.52C57.5801 12.46 58.3001 12.24 57.9601 12.22C57.6201 12.2 56.7101 12.27 56.9901 12.16C57.2701 12.05 58.2301 11.97 57.9101 11.97C57.5901 11.97 56.1401 11.78 56.8501 11.77C57.5501 11.75 58.4901 11.97 58.8501 12.19C59.2101 12.41 59.4601 12.55 59.9001 12.55C60.3401 12.55 60.5301 12.64 60.5401 12.39C60.5601 12.14 60.7301 12.03 60.4101 11.92C60.1001 11.81 59.6701 11.7 59.3801 11.62C59.0801 11.54 58.4401 11.29 58.4301 11.23C58.4101 11.17 56.7901 11.18 57.4901 10.98C58.1901 10.78 58.7901 10.78 59.0401 11.01C59.2901 11.25 59.7901 11.48 60.1501 11.35C60.5101 11.22 60.5101 11.11 60.1701 10.99C59.8301 10.86 59.0101 10.93 58.7501 10.68C58.4801 10.43 58.7701 10.37 58.7701 10.37L60.4101 10.59C60.4101 10.59 61.0501 10.54 61.0701 10.5C61.0901 10.45 60.8801 10.33 61.0501 10.16C61.2201 9.99001 60.9101 9.85001 60.7401 9.63001C60.5701 9.41001 61.2301 9.65001 61.4301 9.71001C61.6301 9.77001 62.2001 10.01 62.0601 9.62001C61.9201 9.23001 61.7201 9.07001 61.5901 8.87001C61.4601 8.67001 61.3901 8.51002 61.6101 8.51002C61.8301 8.51002 62.7101 9.34001 62.7101 9.15001C62.7101 8.96001 62.6601 8.63001 62.6601 8.54001C62.6601 8.45001 62.5501 8.45002 62.1701 8.27002C61.7901 8.10002 62.3301 8.13001 62.3301 7.85001C62.3301 7.57001 62.0601 7.26001 62.2501 7.02001C62.4401 6.79001 62.7201 6.82001 63.0001 6.72001C63.2801 6.63001 63.6601 6.31001 64.1101 6.27001C64.5601 6.22001 64.6601 6.13001 65.6001 5.96001C66.5401 5.79001 67.7601 5.85001 66.8401 5.73001C65.9201 5.60001 64.6801 5.59001 64.1901 5.59001C63.7001 5.59001 62.7001 5.45001 62.3701 5.54001C62.0401 5.63001 62.1501 5.87001 61.6001 5.67001C61.0501 5.47001 61.6301 5.34001 60.8501 5.34001C60.0701 5.34001 58.7201 6.00001 58.7401 5.72001C58.7601 5.44001 60.2301 5.30001 60.6501 5.20001C61.0701 5.10001 62.0101 4.93001 61.5401 4.93001C61.0701 4.93001 60.3301 4.80001 59.7101 4.80001C59.0901 4.80001 57.9301 4.91001 57.9101 4.75001C57.8901 4.59001 58.2201 4.42001 57.7201 4.42001C57.2201 4.42001 56.4701 4.09001 55.8901 4.39001C55.3101 4.69001 53.8901 4.28001 53.2801 4.28001C52.6701 4.28001 49.0101 4.53001 48.1001 4.53001C47.1901 4.53001 46.1901 4.58001 45.5801 4.59001C44.9701 4.61001 43.6201 4.81001 44.3401 4.87001C45.0601 4.93001 46.3101 4.96001 46.0501 5.12001C45.7801 5.28001 44.7201 5.31001 44.7701 5.37001C44.8201 5.43001 46.1001 5.50001 45.6901 5.59001C45.2801 5.68001 44.4501 5.82001 44.0501 5.48001C43.6401 5.14001 43.4701 4.85001 43.1401 4.85001C43.0501 4.85001 42.9101 4.85001 42.7401 4.86001C42.4601 4.95001 42.1901 5.05001 41.9101 5.14001C42.1001 5.28001 42.3601 5.44001 42.1401 5.44001C41.9001 5.44001 41.6601 5.40001 41.4301 5.30001C38.6901 6.26001 36.0801 7.49001 33.6301 8.95001C34.3701 8.94001 35.0101 8.95001 35.6401 9.00001C36.3101 9.05001 36.8301 9.09002 37.1401 9.22002C37.4501 9.35002 37.9701 9.61001 38.1001 9.86001C38.2301 10.11 39.2601 10.99 39.3101 11.3C39.3601 11.61 39.1701 11.88 39.8601 11.88C40.5501 11.88 41.1301 11.68 41.3801 11.69C41.6301 11.71 42.1801 11.85 42.1901 12.07C42.2101 12.29 42.5301 12.68 42.1601 12.57C41.7801 12.46 40.7501 12.29 40.4801 12.37C40.2101 12.45 40.0301 12.57 39.9901 12.76C39.9601 12.95 40.0401 13.31 40.5401 13.23C41.0401 13.15 41.0701 12.87 41.6401 12.87C42.2101 12.87 42.3801 12.87 42.4501 13.04C42.5301 13.21 43.0901 13.24 42.4501 13.45C41.8101 13.65 41.5301 13.64 41.2001 13.64C40.8701 13.64 40.5901 13.83 40.5901 13.92C40.5901 14.01 40.6201 14.36 40.6201 14.64C40.6201 14.92 40.4001 15.2 40.5701 15.38C40.7401 15.56 41.1201 15.65 41.2901 15.96C41.4601 16.27 41.4801 16.13 41.5101 16.38C41.5401 16.63 41.4001 16.65 41.7301 16.79C42.0601 16.93 42.1401 16.56 42.3201 17.12C42.5101 17.68 43.2301 17.82 43.3501 17.98C43.4701 18.14 43.2901 18.37 43.9001 18.42C44.5101 18.47 45.1501 18.39 45.5301 18.65C45.9101 18.92 46.4501 19.31 46.8301 19.2C47.2101 19.09 47.1601 18.79 47.4201 18.34C47.6901 17.89 47.5601 17.43 48.0301 17.23C48.5001 17.03 48.7701 17.36 48.8601 16.71C48.9501 16.07 48.2501 16.13 49.1301 15.9C50.0101 15.67 49.1901 15.79 50.1601 15.59C51.1301 15.39 51.8401 15.45 51.9601 15.25C52.0901 15.05 53.2401 14.31 54.0101 14.14C54.7801 13.97 55.0901 14.09 55.7301 13.95C56.3701 13.81 57.6901 13.45 58.0001 13.46C58.3101 13.48 59.2201 13.12 59.5801 13.05C59.9401 12.98 60.1101 12.74 60.1101 12.74L60.1001 12.73ZM65.6001 15.8C65.6301 15.33 65.4701 14.8 64.1901 15.02C62.9101 15.24 62.4401 15.46 61.7201 15.36C61.0001 15.27 59.8401 14.7 59.0901 15.36C58.5401 15.84 60.4101 16.8 61.7201 16.93C63.0401 17.06 65.5701 16.27 65.6001 15.8ZM98.8101 46.72C98.5601 46.14 97.5201 44.72 97.5201 43.92C97.5201 43.12 96.2701 41.79 96.0601 41.08C95.8501 40.37 95.2301 39.45 95.8901 39.24C96.5601 39.03 98.1901 41.58 98.5601 42.37C98.6801 42.63 98.9501 43.14 99.2501 43.72C98.9701 39.04 97.9501 34.57 96.3101 30.4C96.2001 30.39 96.0901 30.38 95.9901 30.4C95.1401 30.46 94.5301 30.67 93.7401 30.92C92.9401 31.17 92.1401 31.11 91.9201 30.75C91.7001 30.39 91.5401 30.03 91.5801 29.9C91.6801 29.49 92.0801 29.32 92.1601 29.1C92.2401 28.88 93.0101 28.22 93.5501 28.07C94.1001 27.91 95.1201 28.31 95.1801 28.6C95.2301 28.84 95.3901 28.79 95.6101 28.72C94.1101 25.33 92.1801 22.17 89.9001 19.3C89.1001 19.39 88.0301 19.69 87.8801 19.86C87.6801 20.08 87.6301 20.35 87.5201 20.61C87.4101 20.88 87.0701 21.14 87.0301 21.39C87.0001 21.64 87.1901 21.53 87.2601 21.73C87.3401 21.93 86.4601 22.4 86.2701 22.58C86.0801 22.75 85.7701 22.27 85.2801 22.22C84.7901 22.17 84.3901 22.22 84.2901 22.39C84.2001 22.56 83.8201 22.59 83.4301 22.47C83.0401 22.34 83.5101 22.27 83.6501 22.17C83.7901 22.08 83.4901 22.03 83.0701 22.26C82.6501 22.49 82.2901 22.26 82.3701 22.09C82.5301 21.75 83.0101 22.04 83.3701 21.76C83.7301 21.48 84.1801 21.67 84.6701 21.42C85.1601 21.17 84.8001 20.73 84.8101 20.45C84.8301 20.17 85.7001 19.96 85.9201 19.73C86.1401 19.5 87.2801 19.32 87.7701 19.32C88.0701 19.32 88.9301 19.23 89.7501 19.12C89.1201 18.33 88.4601 17.56 87.7701 16.82C87.5101 16.86 87.2901 16.84 87.1701 16.95C87.0101 17.09 86.9001 17.37 87.1201 17.53C87.3401 17.69 87.5601 17.95 87.3701 18.19C87.1801 18.42 86.7901 18.75 86.2701 18.71C85.7501 18.66 85.7101 18.73 85.4601 18.65L85.4001 18.63C85.1501 18.49 84.9801 18.24 85.1501 17.89C85.3201 17.55 85.6001 17.33 85.9201 17.17C86.2301 17.01 86.7001 16.97 86.9401 16.92C87.1701 16.87 87.4701 16.83 87.5201 16.64C87.5201 16.62 87.5401 16.61 87.5501 16.59C86.4701 15.44 85.3301 14.35 84.1301 13.32C84.0401 13.33 83.9601 13.35 83.8401 13.37C83.3101 13.5 83.0901 13.78 83.3101 13.84C83.5301 13.9 83.1501 14.28 83.0001 14.4C82.8401 14.53 82.2201 14.74 82.0301 14.84C81.8401 14.94 81.6201 15.47 81.5001 15.69C81.4001 15.86 80.9701 16.21 80.6401 16.62C80.6101 16.63 80.5901 16.64 80.5601 16.65C79.6001 17.03 77.3001 17.15 77.3901 18.61C77.4701 20.07 78.7301 20.15 79.3901 20.03C80.0601 19.9 81.1401 19.53 81.1401 19.53L82.0201 21.37C82.0201 21.37 80.3101 20.16 79.2201 20.99C78.1301 21.82 79.1801 22.91 79.1801 22.91C79.1801 22.91 76.7601 23.45 76.1301 23.2C75.5001 22.95 76.6301 21.99 76.6301 21.99C76.6301 21.99 75.0901 21.91 75.0001 22.2C74.9201 22.49 75.7501 22.7 75.7501 22.7C75.7501 22.7 75.4601 22.87 75.1201 22.87C74.7801 22.87 73.3701 22.49 73.2801 22.2C73.2001 21.91 72.4001 21.55 72.4001 21.55C72.4001 21.55 72.8801 20.97 72.9601 20.82C73.0401 20.67 73.1701 20.59 73.0401 20.53C72.9101 20.47 71.8301 20.55 71.8301 20.4C71.8301 20.25 72.3501 20.02 72.2701 19.9C72.1901 19.77 70.9801 19.86 70.8901 20C70.8101 20.15 70.5601 20.58 70.4101 20.65C70.2601 20.71 70.0501 20.42 69.8501 20.59C69.6401 20.76 70.1601 21.03 70.1801 21.15C70.2001 21.27 70.1401 21.69 70.2601 21.76C70.3901 21.82 71.1601 21.63 71.1401 21.86C71.1201 22.09 70.8901 22.32 71.1401 22.55C71.3901 22.78 72.0201 22.86 71.9301 23.01C71.8501 23.16 71.2001 23.3 71.1601 23.59C71.1201 23.88 70.8301 24.22 70.8301 24.22L71.5601 24.49C71.5601 24.49 70.3301 25.1 70.5201 25.22C70.7101 25.35 72.0901 25.12 72.4201 25.09C72.7501 25.07 74.5901 25.11 74.8601 24.78C75.1301 24.45 75.4401 23.26 75.9001 23.55C76.3601 23.84 75.0201 25.24 74.1301 25.43C73.2301 25.62 72.6101 25.58 72.5001 25.62C72.4001 25.66 72.8801 25.95 72.4201 26.02C71.9601 26.08 71.0401 26.27 70.9601 26.42C70.8801 26.57 73.0301 27 73.1901 27.94C73.3601 28.88 73.4401 29.51 72.6701 29.46C71.9001 29.42 69.7901 29.33 69.3901 29.31C68.9901 29.29 68.5101 29.35 68.4701 29.6C68.4301 29.85 68.7801 30.5 68.6801 30.96C68.5801 31.42 68.2401 32.09 68.2601 32.3C68.2801 32.51 68.6401 32.47 68.5901 32.86C68.5501 33.26 68.5101 33.53 68.5101 33.53C68.5101 33.53 68.7801 33.51 69.1601 33.47C69.5401 33.43 69.9701 33.43 70.1201 33.76C70.2701 34.09 70.5601 34.05 70.8701 33.89C71.1801 33.72 72.2501 33.83 72.6401 33.58C73.0401 33.33 73.4701 33.14 73.6201 33.1C73.7701 33.06 74.1601 32.56 74.2001 32.39C74.2401 32.22 73.8201 31.93 74.3001 31.47C74.7801 31.01 76.1601 30.59 76.1401 30.34C76.1201 30.09 75.7901 29.69 76.4501 29.44C77.1201 29.19 78.0801 29.77 78.2001 29.67C78.3301 29.57 78.9501 29.32 79.1201 29.17C79.2901 29.02 79.7501 28.48 80.3301 29.15C80.9101 29.82 81.4401 30.65 82.1701 30.82C82.9001 30.99 83.2301 30.99 83.4401 31.28C83.6501 31.57 83.8601 31.53 83.9801 31.7C84.1101 31.87 84.2901 32.16 84.2101 32.28C84.1301 32.41 84.1501 32.57 83.8801 32.68C83.6101 32.78 82.6701 32.68 82.3401 32.74C82.0101 32.8 81.8401 32.84 81.9201 32.97C82.0001 33.1 82.7301 33.3 83.0301 33.49C83.3201 33.68 83.5901 33.7 83.5901 33.7L83.6901 33.43C83.6901 33.43 83.5001 33.16 83.6101 33.05C83.7101 32.95 83.9401 32.78 84.0901 32.84C84.2401 32.9 84.4701 32.61 84.4701 32.55C84.4701 32.49 84.6801 32.3 84.7801 32.28C84.8801 32.26 85.0501 32.07 84.8801 31.97C84.7101 31.87 84.5401 31.81 84.5701 31.62C84.6001 31.42 84.6501 31.23 84.9101 31.34C85.1701 31.44 85.3701 31.58 85.4301 31.67C85.4901 31.76 85.7301 31.64 85.6801 31.5C85.6301 31.36 85.5001 31.13 85.2001 31.07C84.9001 31.01 84.4201 30.79 84.3701 30.65C84.3201 30.51 84.5501 30.37 84.1101 30.37C83.6701 30.37 83.0801 30.05 82.9601 29.73C82.8501 29.42 82.7801 29.38 82.5401 29.22C82.3001 29.06 81.9501 28.7 82.2101 28.45C82.4701 28.2 82.8801 28.58 83.3501 28.93C83.8201 29.28 84.8801 29.64 85.1401 29.8C85.4001 29.96 86.3001 30.35 86.3001 30.53C86.3001 30.71 86.0101 31.24 86.2301 31.39C86.4501 31.54 86.9301 31.96 87.0601 32.25C87.2001 32.53 87.4001 32.66 87.4801 32.7C87.5501 32.74 87.2501 32.86 87.4001 33C87.5501 33.15 87.6901 33.04 87.6701 33.3C87.6501 33.56 87.6601 33.53 87.9201 33.56C88.1801 33.59 88.5001 33.75 88.5601 33.79C88.6101 33.83 88.3401 33.16 88.4701 33.16C88.6001 33.16 88.5001 32.84 88.6301 32.81C88.7601 32.78 89.1801 33.15 89.2501 33.02C89.3201 32.89 89.4101 32.67 89.2501 32.55C89.0901 32.44 88.8201 32.12 88.7201 32.02C88.6201 31.92 88.2801 31.54 88.4001 31.38C88.5101 31.22 88.7601 31.59 89.0401 31.49C89.3101 31.4 89.2901 31.07 89.4501 31.07C89.6101 31.07 89.6801 31.09 90.0501 31.09C90.4201 31.09 90.7501 31.3 90.7501 31.3C90.7501 31.3 90.4801 31.63 90.5401 31.86C90.6001 32.09 90.8701 31.92 90.9201 32.29C90.9601 32.66 90.9101 32.76 91.0101 32.86C91.1101 32.96 91.3201 33.19 91.3401 33.34C91.3601 33.49 91.5201 33.56 91.7201 33.56C91.9201 33.56 92.2501 33.53 92.3401 33.73C92.4201 33.93 92.6001 34.05 92.8901 34.01C93.1801 33.97 93.1801 33.6 93.3801 33.59C93.5801 33.58 94.0801 33.75 94.3901 33.96C94.7001 34.17 95.2901 34.07 95.4501 33.97C95.6201 33.87 95.7301 33.58 95.9601 33.66C96.1901 33.73 96.4801 33.73 96.6101 33.64C96.7401 33.55 96.8701 33.54 96.8101 33.68C96.7501 33.83 96.5601 33.88 96.5801 34.06C96.6001 34.24 96.5801 34.3 96.6101 34.48C96.6401 34.66 96.6601 34.99 96.4501 35.34C96.2401 35.68 96.0401 36.93 95.5201 37.01C95.0001 37.09 94.4601 36.52 93.7601 36.71C93.0601 36.9 92.8901 37.3 92.3501 37.25C91.8101 37.2 90.3601 36.81 90.1701 36.86C89.9801 36.91 89.8301 36.71 89.8301 36.64C89.8301 36.57 89.1301 36.64 88.8501 36.43C88.5701 36.22 87.8001 35.67 87.1101 36.19C86.4201 36.71 86.6501 36.86 86.6701 37.08C86.6901 37.3 86.5701 37.82 86.1601 37.64C85.7501 37.46 84.9801 36.99 84.6201 37.01C84.2501 37.03 83.9901 36.74 83.8701 36.46C83.7401 36.18 82.9501 35.94 82.5901 35.99C82.2201 36.04 81.9501 36.1 81.6001 35.81C81.2501 35.52 80.8401 35.23 80.8901 35.11C80.9401 35 81.6601 35.06 81.6901 34.84C81.7201 34.62 81.3201 34.69 81.2201 34.51C81.1201 34.32 81.0401 34.33 80.9401 34.21C80.8401 34.08 80.7501 33.97 80.9001 33.86C81.0501 33.75 81.1901 33.55 81.1401 33.49C81.0901 33.44 80.7901 33.69 80.6901 33.55C80.6001 33.41 80.4701 33.27 80.1801 33.31C79.8901 33.35 79.5901 33.61 79.1901 33.49C78.7901 33.36 78.6601 33.46 78.3001 33.48C77.9401 33.5 77.8801 33.72 77.6401 33.72C77.4001 33.72 76.6301 33.52 75.9801 33.65C75.3301 33.78 73.8101 34.16 73.4901 34.39C73.1701 34.62 72.9401 34.74 72.5001 34.58C72.0601 34.41 71.4501 34.77 71.2801 34.6C71.1101 34.43 70.8001 34.18 70.8001 34.18L70.3801 34.36C70.3801 34.36 70.1301 35.15 69.1301 35.7C68.1301 36.24 68.1301 36.87 68.0401 37.45C67.9601 38.03 67.5801 38.7 66.6201 39.08C65.6601 39.46 65.2801 40.83 64.7401 41.17C64.2001 41.5 62.8601 43.3 63.3201 44.01C63.7801 44.72 64.1101 45.55 63.6501 46.81C63.1901 48.06 62.8201 49.73 65.5701 51.69C68.3301 53.65 69.3301 54.07 69.3301 54.07C69.3301 54.07 70.8701 53.07 71.9601 53.49C73.0501 53.91 74.7201 52.99 75.5501 52.82C76.3801 52.65 77.3901 53.45 77.6401 53.86C77.8901 54.28 80.1501 52.9 79.9801 54.78C79.8101 56.66 79.4401 57.08 79.6901 57.58C79.9401 58.08 81.0701 59.25 81.6901 60.38C82.3201 61.51 82.6101 62.18 82.3601 62.47C82.1101 62.76 82.9001 63.22 82.6901 63.89C82.4801 64.56 81.2301 65.18 81.5601 67.1C81.8901 69.02 82.9801 69.6 83.2701 71.15C83.5601 72.69 83.3101 73.24 84.3101 74.49C85.3101 75.74 85.8101 76.49 85.7701 77.12C85.7501 77.42 85.7301 77.68 85.7701 77.89C93.9001 70.17 99.0301 59.34 99.2901 47.31C99.0601 47.12 98.8701 46.93 98.7901 46.73L98.8101 46.72Z" fill="#125A5D"/>
<path d="M55.75 75.8701C25.01 75.8701 0 64.2101 0 49.8701C0 43.7301 4.6 37.8001 12.94 33.1501C13.3 32.9501 13.76 33.0801 13.96 33.4401C14.16 33.8001 14.03 34.2601 13.67 34.4601C5.82 38.8301 1.5 44.3001 1.5 49.8701C1.5 63.3801 25.84 74.3701 55.75 74.3701C85.66 74.3701 110 63.3801 110 49.8701C110 44.3001 105.68 38.8301 97.83 34.4601C97.47 34.2601 97.34 33.8001 97.54 33.4401C97.74 33.0801 98.2 32.9501 98.56 33.1501C106.91 37.7901 111.51 43.7301 111.51 49.8701C111.51 64.2101 86.5 75.8701 55.76 75.8701H55.75Z" fill="#AFB6E5"/>
<g style="mix-blend-mode:multiply">
<path d="M14.38 35.59C14.25 35.12 14.15 34.66 14.05 34.2C13.83 34.96 13.63 35.72 13.45 36.5C13.58 36.54 13.72 36.55 13.86 36.52C14.26 36.41 14.49 35.9999 14.39 35.5999L14.38 35.59Z" fill="#CED3F4"/>
</g>
<path d="M83.36 93C78.8069 93 73.4651 91.7715 67.644 89.3244C67.2646 89.1646 67.0849 88.7251 67.2446 88.3456C67.4044 87.966 67.8537 87.7862 68.2231 87.946C79.6157 92.7503 88.9414 92.7103 93.814 87.8362C98.357 83.2916 98.7365 75.0514 94.8724 64.6439C90.9384 54.0366 83.1104 42.5203 72.8061 32.2226C62.5119 21.9249 50.9995 14.0843 40.3957 10.149C29.9816 6.28361 21.7542 6.66315 17.2112 11.2077C13.357 15.0631 12.4984 21.8151 14.7948 30.215C14.9047 30.6145 14.665 31.024 14.2657 31.1339C13.8663 31.2438 13.4569 31.0041 13.3471 30.6045C10.8609 21.5254 11.8294 14.4538 16.1428 10.139C21.1252 5.15495 29.9217 4.65555 40.9149 8.73068C51.7184 12.7359 63.4205 20.6964 73.8645 31.1439C84.3085 41.5914 92.2664 53.2974 96.2702 64.1045C100.344 75.1014 99.8448 83.9009 94.8624 88.8849C92.1266 91.6216 88.1726 92.99 83.35 92.99L83.36 93Z" fill="#60E8E1"/>
<path d="M27.86 93.4C23.03 93.4 19.07 92.03 16.33 89.29C11.34 84.3 10.84 75.49 14.92 64.48C18.93 53.66 26.9 41.94 37.36 31.48C59.1 9.75003 85.03 0.310032 95.17 10.45C99.43 14.71 100.43 21.67 98.07 30.58C97.96 30.98 97.56 31.22 97.15 31.11C96.75 31 96.51 30.59 96.62 30.19C98.84 21.82 97.97 15.36 94.11 11.5C84.56 1.95003 59.58 11.39 38.43 32.54C28.12 42.85 20.27 54.38 16.33 65C12.46 75.43 12.84 83.67 17.39 88.22C22.24 93.07 31.52 93.13 42.86 88.4C43.24 88.24 43.68 88.42 43.84 88.8C44 89.18 43.82 89.62 43.44 89.78C37.68 92.19 32.39 93.39 27.87 93.39L27.86 93.4Z" fill="#11A0A3"/>
<path d="M55.75 75.8701C25.01 75.8701 0 64.2101 0 49.8701C0 43.7301 4.6 37.8001 12.95 33.1501C13.31 32.9501 13.77 33.0801 13.97 33.4401C14.17 33.8001 14.04 34.2601 13.68 34.4601C5.83 38.8301 1.51 44.3001 1.51 49.8701C1.51 63.3801 25.85 74.3701 55.76 74.3701C85.67 74.3701 110.01 63.3801 110.01 49.8701C110.01 44.3001 105.69 38.8301 97.84 34.4601C97.48 34.2601 97.35 33.8001 97.55 33.4401C97.75 33.0801 98.21 32.9501 98.57 33.1501C106.92 37.7901 111.52 43.7301 111.52 49.8701C111.52 64.2101 86.51 75.8701 55.77 75.8701H55.75Z" fill="#60E8E1"/>
<path d="M27.6503 93C22.8276 93 18.8736 91.6315 16.1377 88.8944C11.1552 83.9098 10.656 75.1093 14.7298 64.1112C18.7338 53.3029 26.6917 41.5955 37.1359 31.1468C47.5802 20.6981 59.2825 12.7367 70.0861 8.731C81.0795 4.6554 89.8762 5.15486 94.8587 10.1395C99.1122 14.3949 100.111 21.3474 97.7543 30.2478C97.6545 30.6473 97.2451 30.8871 96.8357 30.7772C96.4363 30.6673 96.1967 30.2577 96.3065 29.8582C98.5231 21.4972 97.6545 15.0442 93.8003 11.1883C89.2571 6.64325 81.0196 6.26366 70.6153 10.1295C60.0114 14.0652 48.4988 21.8968 38.2043 32.2056C27.9099 42.5145 20.0717 54.0221 16.1377 64.6306C12.2735 75.0494 12.653 83.2805 17.1961 87.8256C22.0388 92.6704 31.3048 92.7303 42.6276 88.0054C43.0071 87.8456 43.4464 88.0254 43.6062 88.405C43.7659 88.7846 43.5862 89.2241 43.2068 89.3839C37.4555 91.7913 32.1734 92.99 27.6603 92.99L27.6503 93Z" fill="#60E8E1"/>
<path d="M24.75 52.12C27.2353 52.12 29.25 50.1053 29.25 47.62C29.25 45.1347 27.2353 43.12 24.75 43.12C22.2647 43.12 20.25 45.1347 20.25 47.62C20.25 50.1053 22.2647 52.12 24.75 52.12Z" fill="#FFB800"/>
<path d="M84.4199 75.79C86.9052 75.79 88.9199 73.7753 88.9199 71.29C88.9199 68.8048 86.9052 66.79 84.4199 66.79C81.9346 66.79 79.9199 68.8048 79.9199 71.29C79.9199 73.7753 81.9346 75.79 84.4199 75.79Z" fill="#FFB800"/>
<path d="M31.0801 11.79C33.5654 11.79 35.5801 9.77532 35.5801 7.29004C35.5801 4.80476 33.5654 2.79004 31.0801 2.79004C28.5948 2.79004 26.5801 4.80476 26.5801 7.29004C26.5801 9.77532 28.5948 11.79 31.0801 11.79Z" fill="#FFB800"/>
</g>
<defs>
<clipPath id="clip0_230_721">
<rect width="111.5" height="94.92" fill="white"/>
</clipPath>
</defs>
</svg>
