<svg width="139" height="112" viewBox="0 0 139 112" fill="none" xmlns="http://www.w3.org/2000/svg">
<g clip-path="url(#clip0_230_483)">
<path d="M107.113 60.5021L60.1472 60.5511L0 95.3411L2.43774 95.9912H45.7413L67.0316 83.6872L68.2199 83.405C70.1921 82.9389 72.2624 83.2456 74.0141 84.2637L79.5388 87.4532C79.6736 87.5268 79.8206 87.5636 79.9676 87.5636H80.9598L82.8708 82.7303L80.6291 75.8239L107.126 60.5021H107.113Z" fill="#052B2E"/>
<path d="M80.5801 111.865C80.4576 111.939 80.3229 111.975 80.1881 111.975C79.7717 112 78.8652 112.025 78.6447 111.89L65.525 104.308C65.1697 104.1 65.1697 103.769 65.525 103.572L106.452 79.9089C107.052 79.5654 108.02 79.5654 108.608 79.9089L121.728 87.49C122.071 87.6863 83.5446 110.135 80.5801 111.853V111.865Z" fill="#052B2E"/>
<path d="M132.275 73.3458C129.58 72.4503 124.533 72.1804 122.401 73.5053C118.972 75.6275 121.225 77.6271 124.018 79.3322C130.927 83.5644 133.206 83.7362 137.052 81.9697C138.192 81.4422 138.865 80.608 138.865 79.7861C138.865 78.9642 137.016 74.9283 132.275 73.3458Z" fill="#052B2E"/>
<path d="M90.2209 73.3949L74.198 82.7057L80.8987 86.5822L96.9339 77.2713L90.2209 73.3949Z" fill="#60E8E1"/>
<path d="M97.0195 77.394C97.0195 77.394 96.9828 77.3326 96.9706 77.3081C96.9338 77.2713 80.9109 86.5821 80.9109 86.5821C80.9721 86.6435 80.9844 86.668 80.9966 86.7048C81.1069 86.9502 81.0946 87.4776 80.9721 87.5512L96.995 78.2404C97.1175 78.1668 97.1298 77.6393 97.0195 77.394Z" fill="#30D1CF"/>
<path d="M88.9223 71.8492C88.6283 71.1745 88.5671 70.5244 88.7753 70.0705L93.1363 60.4161L77.1134 69.727L72.7524 79.3813C72.5442 79.8229 72.5932 80.4731 72.8994 81.1478C73.0587 81.5158 73.2669 81.847 73.5119 82.1169C73.7202 82.35 73.9529 82.5463 74.1979 82.6935L90.2208 73.3826C89.9758 73.2354 89.7431 73.0391 89.5348 72.8061C89.2898 72.5362 89.0816 72.205 88.9223 71.8369V71.8492Z" fill="#30D1CF"/>
<path d="M80.8987 86.5821L74.198 82.7056C73.659 82.399 73.1935 81.8347 72.8995 81.16C72.6055 80.4853 72.5442 79.8351 72.7525 79.3812L77.1135 69.7269L77.138 69.5551L77.1625 60.1584C77.1625 59.8886 76.9787 59.5696 76.746 59.4347C76.5255 59.2997 76.3417 59.4101 76.3417 59.68L76.3172 68.9909L71.9807 78.5716C71.6745 79.2585 71.7602 80.2767 72.2135 81.2949C72.6422 82.3008 73.3895 83.1963 74.198 83.6625L80.8987 87.5389C81.1192 87.6739 81.1314 86.7048 80.8987 86.5698V86.5821Z" fill="#11A0A3"/>
<path d="M93.124 50.5409C93.0873 50.4551 93.0383 50.3692 92.9648 50.2956C92.9035 50.2343 92.8423 50.1729 92.7688 50.1361C92.6585 50.0748 92.5605 50.0625 92.487 50.1116L76.4641 59.4224C76.5376 59.3856 76.6356 59.3856 76.7459 59.447C76.8194 59.4838 76.8806 59.5451 76.9419 59.6064C77.0031 59.68 77.0521 59.7659 77.1011 59.8518C77.1501 59.9622 77.1746 60.0726 77.1746 60.1707L77.1501 69.5674L77.1256 69.7392L93.1485 60.4283L93.173 60.2566L93.1975 50.8599C93.1975 50.7495 93.173 50.6391 93.124 50.5409Z" fill="#11A0A3"/>
<path d="M51.3761 89.4774L50.1021 88.7291L50.0776 38.556L51.3639 39.3043L51.3761 89.4774Z" fill="#11A0A3"/>
<path d="M51.3639 39.3043L50.0776 38.556L116.766 0L118.053 0.748302L51.3639 39.3043Z" fill="#60E8E1"/>
<path d="M118.053 0.748169L118.065 50.9212L51.3763 89.4772L51.364 39.3041L118.053 0.748169Z" fill="#30D1CF"/>
<path d="M51.658 39.5373L117.746 1.32483L117.734 44.7877L51.6458 83.0002L51.658 39.5373Z" fill="#052B2E"/>
<path d="M89.0813 64.9919L86.7294 66.3536C86.4109 66.5376 86.1414 66.4272 86.1414 66.1082C86.1414 65.7893 86.3986 65.3722 86.7294 65.1882L89.0813 63.8265C89.3998 63.6425 89.6693 63.7529 89.6693 64.0718C89.6693 64.3908 89.4121 64.8079 89.0813 64.9919Z" fill="#11A0A3"/>
<path d="M121.679 86.7417L108.559 79.1606C108.204 78.952 107.628 78.952 107.285 79.1606L66.3579 102.824C66.1864 102.922 66.1006 103.045 66.0884 103.18V103.879C66.0884 104.014 66.1741 104.149 66.3579 104.247L79.4776 111.828C79.8328 112.037 80.4085 112.037 80.7515 111.828L121.679 88.1647C121.85 88.0666 121.948 87.9316 121.948 87.7967V87.122C121.948 86.9871 121.862 86.8521 121.679 86.754V86.7417Z" fill="#30D1CF"/>
<path d="M121.678 87.4778L80.7514 111.141C80.3962 111.35 79.8204 111.35 79.4774 111.141L66.3577 103.56C66.0025 103.352 66.0025 103.02 66.3577 102.824L107.285 79.1606C107.64 78.952 108.216 78.952 108.559 79.1606L121.678 86.7417C122.034 86.9503 122.034 87.2815 121.678 87.4778Z" fill="#60E8E1"/>
<path d="M73.0342 102.382L71.3559 103.352C71.1967 103.45 70.9272 103.45 70.7679 103.352L69.3592 102.53C69.1999 102.431 69.1999 102.284 69.3592 102.186L71.0374 101.217C71.1967 101.119 71.4662 101.119 71.6254 101.217L73.0342 102.039C73.1934 102.137 73.1934 102.284 73.0342 102.382ZM75.7536 100.469L74.3449 99.6468C74.1857 99.5487 73.9162 99.5487 73.7569 99.6468L72.0787 100.616C71.9194 100.714 71.9194 100.861 72.0787 100.959L73.4874 101.781C73.6467 101.879 73.9162 101.879 74.0754 101.781L75.7536 100.812C75.9129 100.714 75.9129 100.567 75.7536 100.469ZM78.4731 98.8985L77.0644 98.0766C76.9051 97.9785 76.6356 97.9785 76.4764 98.0766L74.7982 99.0457C74.6389 99.1439 74.6389 99.2911 74.7982 99.3892L76.2069 100.211C76.3661 100.309 76.6356 100.309 76.7949 100.211L78.4731 99.242C78.6324 99.1439 78.6324 98.9967 78.4731 98.8985ZM81.1926 97.3283L79.7839 96.5064C79.6246 96.4083 79.3551 96.4083 79.1959 96.5064L77.5176 97.4755C77.3584 97.5737 77.3584 97.7209 77.5176 97.819L78.9264 98.6409C79.0856 98.739 79.3551 98.739 79.5144 98.6409L81.1926 97.6718C81.3519 97.5737 81.3519 97.4264 81.1926 97.3283ZM83.9121 95.7581L82.5034 94.9362C82.3441 94.8381 82.0746 94.8381 81.9154 94.9362L80.2371 95.9053C80.0779 96.0034 80.0779 96.1507 80.2371 96.2488L81.6459 97.0707C81.8051 97.1688 82.0746 97.1688 82.2339 97.0707L83.9121 96.1016C84.0714 96.0034 84.0714 95.8562 83.9121 95.7581ZM86.6316 94.1879L85.2228 93.366C85.0636 93.2679 84.7941 93.2679 84.6348 93.366L82.9566 94.3351C82.7974 94.4332 82.7974 94.5804 82.9566 94.6786L84.3654 95.5005C84.5246 95.5986 84.7941 95.5986 84.9533 95.5005L86.6316 94.5314C86.7908 94.4332 86.7908 94.286 86.6316 94.1879ZM89.3511 92.6177L87.9423 91.7958C87.7831 91.6976 87.5136 91.6976 87.3543 91.7958L85.6761 92.7649C85.5168 92.863 85.5168 93.0102 85.6761 93.1084L87.0848 93.9303C87.2441 94.0284 87.5136 94.0284 87.6728 93.9303L89.3511 92.9612C89.5103 92.863 89.5103 92.7158 89.3511 92.6177ZM92.0706 91.0475L90.6618 90.2256C90.5026 90.1274 90.2331 90.1274 90.0738 90.2256L88.3956 91.1947C88.2363 91.2928 88.2363 91.44 88.3956 91.5382L89.8043 92.3601C89.9636 92.4582 90.2331 92.4582 90.3923 92.3601L92.0706 91.391C92.2298 91.2928 92.2298 91.1456 92.0706 91.0475ZM94.79 89.4773L93.3813 88.6554C93.2221 88.5572 92.9526 88.5572 92.7933 88.6554L91.1151 89.6245C90.9558 89.7226 90.9558 89.8698 91.1151 89.968L92.5238 90.7899C92.6831 90.888 92.9526 90.888 93.1118 90.7899L94.79 89.8208C94.9493 89.7226 94.9493 89.5754 94.79 89.4773ZM98.3793 87.4041L96.9705 86.5822C96.8113 86.4841 96.5418 86.4841 96.3825 86.5822L93.8223 88.0543C93.663 88.1524 93.663 88.2996 93.8223 88.3977L95.231 89.2197C95.3903 89.3178 95.6598 89.3178 95.819 89.2197L98.3793 87.7476C98.5385 87.6494 98.5385 87.5022 98.3793 87.4041ZM110.029 89.2687L108.62 88.4468C108.461 88.3487 108.191 88.3487 108.032 88.4468L106.354 89.4159C106.195 89.5141 106.195 89.6613 106.354 89.7594L107.763 90.5813C107.922 90.6795 108.191 90.6795 108.351 90.5813L110.029 89.6122C110.188 89.5141 110.188 89.3669 110.029 89.2687ZM112.748 87.6985L111.34 86.8766C111.18 86.7785 110.911 86.7785 110.752 86.8766L109.073 87.8457C108.914 87.9439 108.914 88.0911 109.073 88.1892L110.482 89.0111C110.641 89.1093 110.911 89.1093 111.07 89.0111L112.748 88.042C112.908 87.9439 112.908 87.7967 112.748 87.6985ZM115.468 86.1283L114.059 85.3064C113.9 85.2083 113.63 85.2083 113.471 85.3064L111.793 86.2755C111.634 86.3737 111.634 86.5209 111.793 86.619L113.202 87.4409C113.361 87.539 113.63 87.539 113.79 87.4409L115.468 86.4718C115.627 86.3737 115.627 86.2264 115.468 86.1283ZM112.516 90.704L111.107 89.8821C110.948 89.7839 110.678 89.7839 110.519 89.8821L108.841 90.8512C108.681 90.9493 108.681 91.0965 108.841 91.1947L110.249 92.0166C110.409 92.1147 110.678 92.1147 110.837 92.0166L112.516 91.0475C112.675 90.9493 112.675 90.8021 112.516 90.704ZM115.235 89.1338L113.826 88.3119C113.667 88.2137 113.398 88.2137 113.238 88.3119L111.56 89.281C111.401 89.3791 111.401 89.5263 111.56 89.6245L112.969 90.4464C113.128 90.5445 113.398 90.5445 113.557 90.4464L115.235 89.4773C115.394 89.3791 115.394 89.2319 115.235 89.1338ZM117.942 87.5636L116.534 86.7417C116.374 86.6435 116.105 86.6435 115.946 86.7417L114.267 87.7108C114.108 87.8089 114.108 87.9561 114.267 88.0543L115.676 88.8762C115.835 88.9743 116.105 88.9743 116.264 88.8762L117.942 87.9071C118.102 87.8089 118.102 87.6617 117.942 87.5636ZM76.4886 102.934L75.0799 102.113C74.9207 102.014 74.6512 102.014 74.4919 102.113L71.9317 103.585C71.7724 103.683 71.7724 103.83 71.9317 103.928L73.3404 104.75C73.4997 104.848 73.7692 104.848 73.9284 104.75L76.4886 103.278C76.6479 103.18 76.6479 103.033 76.4886 102.934ZM79.2081 101.364L77.7994 100.542C77.6401 100.444 77.3706 100.444 77.2114 100.542L75.5332 101.511C75.3739 101.61 75.3739 101.757 75.5332 101.855L76.9419 102.677C77.1011 102.775 77.3706 102.775 77.5299 102.677L79.2081 101.708C79.3674 101.61 79.3674 101.462 79.2081 101.364ZM81.9276 99.794L80.5189 98.9721C80.3596 98.874 80.0901 98.874 79.9309 98.9721L78.2526 99.9412C78.0934 100.039 78.0934 100.187 78.2526 100.285L79.6614 101.107C79.8206 101.205 80.0901 101.205 80.2494 101.107L81.9276 100.138C82.0869 100.039 82.0869 99.8922 81.9276 99.794ZM84.6471 98.2238L83.2384 97.4019C83.0791 97.3038 82.8096 97.3038 82.6504 97.4019L80.9721 98.371C80.8129 98.4692 80.8129 98.6164 80.9721 98.7145L82.3809 99.5364C82.5401 99.6346 82.8096 99.6346 82.9689 99.5364L84.6471 98.5673C84.8063 98.4692 84.8063 98.322 84.6471 98.2238ZM87.3666 96.6536L85.9578 95.8317C85.7986 95.7336 85.5291 95.7336 85.3699 95.8317L83.6916 96.8008C83.5324 96.899 83.5324 97.0462 83.6916 97.1443L85.1004 97.9662C85.2596 98.0643 85.5291 98.0643 85.6883 97.9662L87.3666 96.9971C87.5258 96.899 87.5258 96.7518 87.3666 96.6536ZM90.0861 95.0834L88.6773 94.2615C88.5181 94.1634 88.2486 94.1634 88.0893 94.2615L86.4111 95.2306C86.2518 95.3287 86.2518 95.476 86.4111 95.5741L87.8198 96.396C87.9791 96.4941 88.2486 96.4941 88.4078 96.396L90.0861 95.4269C90.2453 95.3288 90.2453 95.1815 90.0861 95.0834ZM92.8056 93.5132L91.3968 92.6913C91.2376 92.5931 90.9681 92.5931 90.8088 92.6913L89.1306 93.6604C88.9713 93.7585 88.9713 93.9057 89.1306 94.0039L90.5393 94.8258C90.6986 94.9239 90.9681 94.9239 91.1273 94.8258L92.8056 93.8567C92.9648 93.7585 92.9648 93.6113 92.8056 93.5132ZM95.525 91.943L94.1163 91.1211C93.9571 91.0229 93.6876 91.0229 93.5283 91.1211L91.8501 92.0902C91.6908 92.1883 91.6908 92.3355 91.8501 92.4337L93.2588 93.2556C93.4181 93.3537 93.6876 93.3537 93.8468 93.2556L95.525 92.2865C95.6843 92.1883 95.6843 92.0411 95.525 91.943ZM98.2445 90.3728L96.8358 89.5509C96.6765 89.4527 96.407 89.4527 96.2478 89.5509L94.5695 90.52C94.4103 90.6181 94.4103 90.7653 94.5695 90.8635L95.9783 91.6854C96.1375 91.7835 96.407 91.7835 96.5663 91.6854L98.2445 90.7163C98.4038 90.6181 98.4038 90.4709 98.2445 90.3728ZM100.964 88.8026L99.5553 87.9807C99.396 87.8825 99.1265 87.8825 98.9673 87.9807L97.289 88.9498C97.1298 89.0479 97.1298 89.1951 97.289 89.2933L98.6978 90.1152C98.857 90.2133 99.1265 90.2133 99.2858 90.1152L100.964 89.1461C101.123 89.0479 101.123 88.9007 100.964 88.8026ZM78.0689 104.86L76.6601 104.038C76.5009 103.94 76.2314 103.94 76.0721 104.038L74.3939 105.008C74.2347 105.106 74.2347 105.253 74.3939 105.351L75.8027 106.173C75.9619 106.271 76.2314 106.271 76.3906 106.173L78.0689 105.204C78.2281 105.106 78.2281 104.959 78.0689 104.86ZM80.7884 103.29L79.3796 102.468C79.2204 102.37 78.9509 102.37 78.7916 102.468L77.1134 103.437C76.9541 103.536 76.9541 103.683 77.1134 103.781L78.5221 104.603C78.6814 104.701 78.9509 104.701 79.1101 104.603L80.7884 103.634C80.9476 103.536 80.9476 103.388 80.7884 103.29ZM83.5079 101.72L82.0991 100.898C81.9399 100.8 81.6704 100.8 81.5111 100.898L79.8329 101.867C79.6736 101.965 79.6736 102.113 79.8329 102.211L81.2416 103.033C81.4009 103.131 81.6704 103.131 81.8296 103.033L83.5079 102.063C83.6671 101.965 83.6671 101.818 83.5079 101.72ZM86.2273 100.15L84.8186 99.3279C84.6593 99.2297 84.3899 99.2297 84.2306 99.3279L82.5524 100.297C82.3931 100.395 82.3931 100.542 82.5524 100.64L83.9611 101.462C84.1204 101.561 84.3898 101.561 84.5491 101.462L86.2273 100.493C86.3866 100.395 86.3866 100.248 86.2273 100.15ZM83.0056 107.706L81.5969 106.884C81.4376 106.786 81.1681 106.786 81.0089 106.884L79.3306 107.854C79.1714 107.952 79.1714 108.099 79.3306 108.197L80.7394 109.019C80.8986 109.117 81.1681 109.117 81.3274 109.019L83.0056 108.05C83.1649 107.952 83.1649 107.805 83.0056 107.706ZM85.7251 106.136L84.3164 105.314C84.1571 105.216 83.8876 105.216 83.7284 105.314L82.0501 106.283C81.8909 106.382 81.8909 106.529 82.0501 106.627L83.4589 107.449C83.6181 107.547 83.8876 107.547 84.0469 107.449L85.7251 106.48C85.8843 106.382 85.8843 106.234 85.7251 106.136ZM88.4446 104.566L87.0358 103.744C86.8766 103.646 86.6071 103.646 86.4478 103.744L84.7696 104.713C84.6103 104.811 84.6103 104.959 84.7696 105.057L86.1783 105.879C86.3376 105.977 86.6071 105.977 86.7663 105.879L88.4446 104.909C88.6038 104.811 88.6038 104.664 88.4446 104.566ZM91.1641 102.996L89.7553 102.174C89.5961 102.076 89.3266 102.076 89.1673 102.174L87.4891 103.143C87.3298 103.241 87.3298 103.388 87.4891 103.486L88.8978 104.308C89.0571 104.407 89.3266 104.407 89.4858 104.308L91.1641 103.339C91.3233 103.241 91.3233 103.094 91.1641 102.996ZM108.302 93.0838L106.893 92.2619C106.734 92.1638 106.464 92.1638 106.305 92.2619L103.745 93.734C103.586 93.8321 103.586 93.9794 103.745 94.0775L105.153 94.8994C105.313 94.9975 105.582 94.9975 105.741 94.8994L108.302 93.4273C108.461 93.3292 108.461 93.182 108.302 93.0838ZM88.9591 98.5796L87.5503 97.7577C87.3911 97.6595 87.1216 97.6595 86.9623 97.7577L85.2841 98.7268C85.1249 98.8249 85.1249 98.9721 85.2841 99.0703L86.6928 99.8922C86.8521 99.9903 87.1216 99.9903 87.2808 99.8922L88.9591 98.9231C89.1183 98.8249 89.1183 98.6777 88.9591 98.5796ZM91.6786 97.0094L90.2698 96.1875C90.1106 96.0893 89.8411 96.0893 89.6818 96.1875L88.0036 97.1566C87.8443 97.2547 87.8443 97.4019 88.0036 97.5001L89.4123 98.322C89.5716 98.4201 89.8411 98.4201 90.0003 98.322L91.6786 97.3528C91.8378 97.2547 91.8378 97.1075 91.6786 97.0094ZM94.398 95.4392L92.9893 94.6172C92.8301 94.5191 92.5606 94.5191 92.4013 94.6172L90.7231 95.5864C90.5638 95.6845 90.5638 95.8317 90.7231 95.9298L92.1318 96.7518C92.2911 96.8499 92.5606 96.8499 92.7198 96.7518L94.398 95.7826C94.5573 95.6845 94.5573 95.5373 94.398 95.4392ZM97.1175 93.8689L95.7088 93.047C95.5495 92.9489 95.28 92.9489 95.1208 93.047L93.4426 94.0162C93.2833 94.1143 93.2833 94.2615 93.4426 94.3596L94.8513 95.1815C95.0105 95.2797 95.28 95.2797 95.4393 95.1815L97.1175 94.2124C97.2768 94.1143 97.2768 93.9671 97.1175 93.8689ZM99.837 92.2987L98.4283 91.4768C98.269 91.3787 97.9995 91.3787 97.8403 91.4768L96.162 92.4459C96.0028 92.5441 96.0028 92.6913 96.162 92.7894L97.5708 93.6113C97.73 93.7095 97.9995 93.7095 98.1588 93.6113L99.837 92.6422C99.9963 92.5441 99.9963 92.3969 99.837 92.2987ZM103.426 90.2256L102.018 89.4037C101.858 89.3055 101.589 89.3055 101.43 89.4037L98.8693 90.8757C98.71 90.9739 98.71 91.1211 98.8693 91.2192L100.278 92.0411C100.437 92.1393 100.707 92.1393 100.866 92.0411L103.426 90.5691C103.585 90.4709 103.585 90.3237 103.426 90.2256ZM81.5356 105.768L80.1269 104.946C79.9676 104.848 79.6981 104.848 79.5389 104.946L76.9786 106.418C76.8194 106.516 76.8194 106.664 76.9786 106.762L78.3874 107.584C78.5466 107.682 78.8161 107.682 78.9754 107.584L81.5356 106.112C81.6949 106.014 81.6949 105.866 81.5356 105.768ZM84.2551 104.198L82.8464 103.376C82.6871 103.278 82.4176 103.278 82.2584 103.376L80.5801 104.345C80.4209 104.443 80.4209 104.591 80.5801 104.689L81.9889 105.511C82.1481 105.609 82.4176 105.609 82.5769 105.511L84.2551 104.541C84.4144 104.443 84.4144 104.296 84.2551 104.198ZM86.9746 102.628L85.5658 101.806C85.4066 101.708 85.1371 101.708 84.9779 101.806L83.2996 102.775C83.1404 102.873 83.1404 103.02 83.2996 103.118L84.7084 103.94C84.8676 104.038 85.1371 104.038 85.2963 103.94L86.9746 102.971C87.1338 102.873 87.1338 102.726 86.9746 102.628ZM89.6941 101.058L88.2853 100.236C88.1261 100.138 87.8566 100.138 87.6973 100.236L86.0191 101.205C85.8598 101.303 85.8598 101.45 86.0191 101.548L87.4278 102.37C87.5871 102.468 87.8566 102.468 88.0158 102.37L89.6941 101.401C89.8533 101.303 89.8533 101.156 89.6941 101.058ZM92.4136 99.4873L91.0048 98.6654C90.8456 98.5673 90.5761 98.5673 90.4168 98.6654L88.7386 99.6346C88.5793 99.7327 88.5793 99.8799 88.7386 99.978L90.1473 100.8C90.3066 100.898 90.5761 100.898 90.7353 100.8L92.4136 99.8308C92.5728 99.7327 92.5728 99.5855 92.4136 99.4873ZM104.835 95.1447L103.426 94.3228C103.267 94.2247 102.997 94.2247 102.838 94.3228L90.2698 101.585C90.1106 101.683 90.1106 101.83 90.2698 101.929L91.6786 102.75C91.8378 102.849 92.1073 102.849 92.2666 102.75L104.835 95.4882C104.994 95.3901 104.994 95.2429 104.835 95.1447ZM95.133 97.9171L93.7243 97.0952C93.5651 96.9971 93.2956 96.9971 93.1363 97.0952L91.4581 98.0643C91.2988 98.1625 91.2988 98.3097 91.4581 98.4078L92.8668 99.2297C93.0261 99.3279 93.2956 99.3279 93.4548 99.2297L95.133 98.2606C95.2923 98.1625 95.2923 98.0153 95.133 97.9171ZM97.8525 96.3469L96.4438 95.525C96.2845 95.4269 96.015 95.4269 95.8558 95.525L94.1775 96.4941C94.0183 96.5923 94.0183 96.7395 94.1775 96.8376L95.5863 97.6595C95.7455 97.7577 96.015 97.7577 96.1743 97.6595L97.8525 96.6904C98.0118 96.5923 98.0118 96.4451 97.8525 96.3469ZM100.572 94.7767L99.1633 93.9548C99.004 93.8567 98.7345 93.8567 98.5753 93.9548L96.897 94.9239C96.7378 95.0221 96.7378 95.1693 96.897 95.2674L98.3058 96.0893C98.465 96.1875 98.7345 96.1875 98.8938 96.0893L100.572 95.1202C100.731 95.0221 100.731 94.8749 100.572 94.7767ZM103.291 93.2065L101.883 92.3846C101.724 92.2865 101.454 92.2865 101.295 92.3846L99.6165 93.3537C99.4573 93.4519 99.4573 93.5991 99.6165 93.6972L101.025 94.5191C101.185 94.6173 101.454 94.6173 101.613 94.5191L103.291 93.55C103.451 93.4519 103.451 93.3047 103.291 93.2065ZM106.011 91.6363L104.602 90.8144C104.443 90.7163 104.173 90.7163 104.014 90.8144L102.336 91.7835C102.177 91.8817 102.177 92.0289 102.336 92.127L103.745 92.9489C103.904 93.047 104.173 93.047 104.333 92.9489L106.011 91.9798C106.17 91.8817 106.17 91.7344 106.011 91.6363ZM102.777 84.9384L101.368 84.1165C101.209 84.0183 100.94 84.0183 100.78 84.1165L99.102 85.0856C98.9428 85.1837 98.9428 85.3309 99.102 85.4291L100.511 86.251C100.67 86.3491 100.94 86.3491 101.099 86.251L102.777 85.2819C102.936 85.1837 102.936 85.0365 102.777 84.9384ZM105.496 83.3682L104.088 82.5463C103.928 82.4481 103.659 82.4481 103.5 82.5463L101.822 83.5154C101.662 83.6135 101.662 83.7607 101.822 83.8589L103.23 84.6808C103.389 84.7789 103.659 84.7789 103.818 84.6808L105.496 83.7117C105.656 83.6135 105.656 83.4663 105.496 83.3682ZM108.216 81.798L106.807 80.9761C106.648 80.8779 106.378 80.8779 106.219 80.9761L104.541 81.9452C104.382 82.0433 104.382 82.1905 104.541 82.2887L105.95 83.1106C106.109 83.2087 106.378 83.2087 106.538 83.1106L108.216 82.1415C108.375 82.0433 108.375 81.8961 108.216 81.798ZM110.69 83.2332L109.282 82.4113C109.122 82.3132 108.853 82.3132 108.694 82.4113L107.015 83.3804C106.856 83.4786 106.856 83.6258 107.015 83.7239L108.424 84.5458C108.583 84.644 108.853 84.644 109.012 84.5458L110.69 83.5767C110.85 83.4786 110.85 83.3314 110.69 83.2332ZM113.091 84.5581L111.707 83.7607C111.572 83.6871 111.352 83.6871 111.217 83.7607L108.841 85.1101C108.73 85.1715 108.547 85.1715 108.424 85.1101L106.562 84.0306C106.354 83.9079 106.035 83.9079 105.827 84.0306L101.564 86.4963C101.356 86.619 101.356 86.803 101.564 86.9257L105.276 89.0725C105.484 89.1951 105.803 89.1951 106.011 89.0725L113.079 84.9875C113.287 84.8648 113.287 84.6808 113.079 84.5581H113.091Z" fill="white"/>
<path d="M138.78 78.5716C138.204 77.0873 136.011 74.229 132.704 72.9655C130.058 71.9596 126.713 70.9169 122.732 73.2231C122.573 73.309 122.438 73.4071 122.303 73.5053C120.87 74.5602 120.907 76.339 122.45 77.4185C125.268 79.3935 128.686 81.2582 128.686 81.2582C129.531 81.712 130.425 82.0923 131.368 82.3254C133.647 82.902 135.668 82.6934 137.383 81.6998C138.461 81.0742 139 80.24 139 79.4181C139 79.2463 138.927 78.9519 138.78 78.5839V78.5716Z" fill="#30D1CF"/>
<g style="mix-blend-mode:multiply" opacity="0.6">
<path d="M127.644 73.6157L126.53 73.0024C126.199 72.8429 125.721 72.8061 125.268 73.1986C124.998 73.4317 125.121 73.5298 125.439 73.6893L126.566 74.2168C126.897 74.3763 127.436 74.4254 127.742 74.2168C128.036 74.0083 127.975 73.7629 127.657 73.6034L127.644 73.6157Z" fill="#17B5B5"/>
</g>
<mask id="mask0_230_483" style="mask-type:luminance" maskUnits="userSpaceOnUse" x="125" y="71" width="3" height="4">
<path d="M125.17 73.4317C125.17 73.4317 126.493 74.2046 127.166 74.2536C127.399 74.2782 127.607 74.1923 127.644 74.1678C127.803 74.0819 127.901 73.9224 127.84 73.5912L127.558 72.1682C127.558 72.1682 126.284 71.0396 125.709 71.7021C125.145 72.3522 124.974 72.9901 125.17 73.4195V73.4317Z" fill="white"/>
</mask>
<g mask="url(#mask0_230_483)">
<path d="M126.922 72.7079C126.542 72.4994 126.174 72.4871 125.819 72.6711L127.436 75.2473C128.22 74.6462 127.828 73.26 126.922 72.7079Z" fill="#CDFAF6"/>
<path d="M127.412 73.9837C127.216 73.4685 126.848 73.0392 126.481 72.8184C126.297 72.708 126.113 72.6589 125.942 72.6712C125.856 72.6712 125.782 72.708 125.709 72.7448C125.611 72.8061 125.354 72.9656 125.243 73.3704C124.974 74.3518 126.101 75.9956 127.24 75.3822C127.571 75.1859 127.657 74.6216 127.412 73.9837Z" fill="#11A0A3"/>
<g style="mix-blend-mode:multiply" opacity="0.5">
<path d="M126.615 74.2658C126.493 73.9469 126.26 73.677 126.027 73.5421C125.917 73.4807 125.795 73.4439 125.684 73.4562C125.366 73.4807 125.256 73.8978 125.439 74.3763C125.562 74.6952 125.795 74.9651 126.027 75.1C126.138 75.1614 126.26 75.1982 126.358 75.1859C126.677 75.1614 126.799 74.7443 126.603 74.2658H126.615Z" fill="#CDFAF6"/>
</g>
<path d="M127.522 73.9101C127.522 73.9101 127.497 73.8365 127.473 73.7997C127.363 73.5544 127.216 73.3336 127.056 73.1496C126.909 72.9778 126.75 72.8429 126.579 72.7447C126.395 72.6343 126.211 72.5853 126.04 72.5975C125.954 72.5975 125.88 72.6343 125.807 72.6711L125.697 72.7325C125.758 72.6957 125.844 72.6711 125.929 72.6589C126.101 72.6466 126.285 72.6957 126.468 72.8061C126.628 72.9042 126.799 73.0392 126.946 73.2109C127.105 73.3949 127.252 73.6157 127.363 73.8611C127.375 73.8979 127.399 73.9347 127.412 73.9715C127.657 74.6094 127.571 75.1737 127.24 75.3699L127.35 75.3086C127.681 75.1123 127.767 74.548 127.522 73.9101Z" fill="#30D1CF"/>
</g>
<path opacity="0.2" d="M126.432 49.756L61.1885 87.4778V47.3639L126.432 9.64209V49.756Z" fill="#60E8E1"/>
<path opacity="0.8" d="M62.0583 47.879V86.0792L125.55 49.3388V11.1754L62.0583 47.879Z" fill="#11A0A3"/>
<path d="M126.432 9.76479L61.1885 47.4989V45.0209L126.432 7.29907V9.76479Z" fill="#11A0A3"/>
<path d="M122.512 11.4821L121.14 12.2795V10.8933L122.512 10.0959V11.4821Z" fill="#11A0A3"/>
<path d="M124.227 10.4886L122.842 11.2859V9.912L124.227 9.11462V10.4886Z" fill="#11A0A3"/>
<path d="M123.063 9.99789V10.9425L124.006 10.4027V9.45813L123.063 9.99789ZM123.847 10.3291L123.234 10.6849V10.0715L123.847 9.71574V10.3291Z" fill="#CDFAF6"/>
<path d="M125.929 9.50717L124.557 10.3045V8.91834L125.929 8.12097V9.50717Z" fill="#11A0A3"/>
<path d="M124.778 9.12691L125.145 9.28639L124.778 9.86295L124.9 9.91202L125.268 9.33546L125.635 9.49493L125.746 9.31092L125.378 9.15145L125.746 8.56262L125.635 8.51355L125.268 9.10238L124.9 8.9429L124.778 9.12691Z" fill="#CDFAF6"/>
<path d="M122.279 11.3963L121.397 11.9115V11.7398L122.279 11.2368V11.3963Z" fill="#CDFAF6"/>
</g>
<defs>
<clipPath id="clip0_230_483">
<rect width="139" height="112" fill="white"/>
</clipPath>
</defs>
</svg>
