<svg width="171" height="71" viewBox="0 0 171 71" fill="none" xmlns="http://www.w3.org/2000/svg">
<g clip-path="url(#clip0_238_1535)">
<path fill-rule="evenodd" clip-rule="evenodd" d="M45.373 2C56.7171 2 66.7769 7.34268 72.984 15.8909H69.9875C69.5594 15.2499 69.3454 14.8225 68.4893 14.8225C67.205 14.8225 67.205 15.4637 65.9207 15.6773C64.6365 15.8911 63.9944 16.3184 63.1383 16.9596C62.2821 17.8144 61.64 16.9596 60.7839 16.9596C60.3558 16.9596 59.2855 17.387 58.8575 18.4555C58.0013 18.2418 57.7874 17.8143 57.5733 17.1732C58.0014 16.3184 58.8575 16.1047 59.9277 15.4635C60.1418 15.4635 60.3557 14.6087 59.4996 14.8225C58.2154 15.0361 57.3593 15.8911 56.7171 16.7459C56.503 16.9596 56.2891 17.3868 56.5032 17.6006L57.1452 18.6691C55.4329 18.4555 53.9346 19.3103 52.6504 20.5926C52.0082 20.5926 51.5802 20.3789 51.3661 19.9515C52.0082 19.5241 52.6504 19.5241 53.5065 19.5241V18.8829C52.4363 18.2418 51.3661 18.2418 50.0819 18.028C48.3696 17.8144 46.8713 18.6692 46.0152 19.9515C45.373 20.8063 44.731 21.2336 44.9449 22.5159C45.8011 22.5159 46.2293 22.9433 47.0854 22.9433C47.9415 23.1569 48.1555 22.7297 47.7274 22.0886C47.2994 21.02 48.3696 20.5926 48.7977 19.9515L49.4397 20.1651C49.4397 20.8062 47.9416 21.4474 49.0118 21.8748C49.4399 22.0885 50.0818 21.8747 50.5099 21.4473V22.3022C49.0116 22.3022 48.5836 23.7981 47.0854 23.7981C46.2293 23.7981 46.0152 23.3707 45.373 23.5844V24.4392C44.945 24.4392 44.7308 24.8666 44.5169 25.0804L44.3029 25.2942C43.6608 24.8668 43.6607 24.0118 43.0185 23.5844V22.7297C42.8046 22.5159 42.3765 22.5159 42.1625 22.7297V23.3707C42.1625 23.7981 42.1624 23.5845 42.3765 23.7981L42.5905 24.0118L42.8046 25.0804C43.2327 25.0804 43.6607 25.294 43.8747 25.7215C43.6607 25.7215 43.2326 25.9352 43.0185 26.1489C42.5905 26.5763 44.0888 27.4311 43.0185 27.6449L41.5204 27.8586C41.3063 29.1408 42.1624 28.7134 42.3765 29.9957C42.8046 29.3545 43.2327 29.3546 43.6608 28.7134C44.5169 27.8586 44.0888 28.0723 45.159 27.6449C45.5871 27.4311 45.5871 27.4313 46.0152 27.4313L45.8011 28.4998C45.373 28.7134 45.5871 29.1408 45.159 29.1408L43.8747 29.3545C43.0186 29.5682 41.7344 31.0641 40.6641 31.919C38.9519 33.2012 38.9518 35.9795 40.8782 37.048C40.236 40.04 40.2361 43.2455 41.0922 46.4511C43.6608 55.8542 51.7943 60.7695 60.7839 62.0517L59.2857 67.6082C55.0049 69.5315 50.2958 70.6 45.5871 70.6C26.7516 70.6 11.3408 55.213 11.3408 36.4068C11.3408 32.9875 11.7689 29.5682 12.8391 26.3627C13.9093 29.1408 13.4812 32.56 17.3338 33.2012C18.4041 33.4149 19.4743 35.552 22.0427 36.1932C22.899 36.4068 23.113 37.048 23.9691 37.2617C24.6113 37.4754 24.8254 37.6892 24.6113 38.1166C24.6113 38.7577 24.1832 39.3988 24.6113 40.8948C25.2533 42.8181 26.7516 42.8181 26.9657 44.1004C26.5376 46.2375 25.8955 48.1608 25.6815 50.2978C25.4674 53.2897 26.3236 53.5035 27.1797 53.9309C27.3938 54.1445 27.8219 54.1445 27.6079 53.5035C27.6079 53.0761 27.6079 52.8623 27.8218 52.2212L28.2499 50.2978C29.5341 48.1608 32.1027 46.4511 33.601 44.314C34.243 43.4592 34.243 42.3907 34.8851 41.3222C35.0991 40.8948 35.3132 40.681 34.8851 40.2536C33.6008 39.1851 32.5307 39.185 31.2465 38.5439V38.3303C31.2465 37.9029 31.2465 37.4753 30.6043 37.4753L29.5341 37.2617C29.5341 36.6206 28.8921 35.9795 28.2499 35.9795L23.541 36.1932C23.113 35.552 23.1129 35.1247 22.6849 34.9109C22.2568 34.6973 22.471 34.0561 22.2569 33.6287C21.8288 33.2012 21.6147 33.8424 21.1866 33.8424C20.1165 33.8424 20.3305 32.9876 20.3305 32.3464C20.3305 31.4917 21.1866 31.0641 21.8288 31.0641C22.899 31.0641 23.113 31.4917 23.541 31.7053C25.0393 32.3465 23.3269 30.8505 25.2533 29.782C25.6815 29.5682 25.2535 28.9272 25.4674 28.4998C27.1797 27.2175 26.1094 26.5763 30.6043 24.8668C29.5341 23.7981 28.8921 21.8747 27.3938 21.4473C25.2533 21.0198 24.3972 21.8748 24.6113 22.9433V24.4392L23.7551 23.5844C22.4708 22.3021 21.6147 23.1569 20.9726 21.4473L21.8288 20.1651C22.4708 20.5926 22.899 20.5926 23.541 20.1651C24.1832 19.5239 23.3271 18.4555 25.0394 18.2417C24.8254 20.8062 26.7516 21.02 28.464 19.5241L28.8921 19.0965C26.7516 18.028 26.1096 16.3184 24.3972 15.2499L28.0358 11.4032C23.541 10.5483 22.4708 11.6169 20.7586 12.4717C26.7516 6.2742 35.5272 2 45.373 2ZM37.4536 20.1651C38.0957 20.5926 37.6677 21.2336 38.3097 21.4473C38.5238 21.4473 38.7379 21.8747 39.1658 21.4473C39.594 21.0198 40.2361 20.8062 40.4502 20.3788L40.0221 19.9515C39.808 19.5241 39.594 19.5241 39.1658 19.5241C38.5238 19.7377 38.5238 19.9514 37.4536 20.1651ZM25.0394 34.0561C25.0394 33.8424 25.2533 33.8423 25.2533 33.6287C25.0393 33.6287 25.0393 33.6287 24.8252 33.415C24.6112 33.415 24.3972 33.4149 24.1832 33.2012C23.9691 32.9875 23.7551 32.9876 23.7551 32.9876C23.1129 32.9876 23.113 33.415 23.541 33.6287C23.9691 34.0561 24.3971 33.6288 24.8252 33.8424L25.0394 34.0561ZM26.1096 33.8424C26.1096 34.0562 25.6815 34.0561 25.8954 34.2697C26.9657 34.6971 27.8218 34.9109 28.8921 35.5521L29.106 35.1247C28.0358 34.2699 26.9657 34.4835 26.1096 33.8424ZM26.9657 15.8909L26.1096 14.6088C27.1797 13.9677 27.6079 12.0443 28.678 12.0443C31.4605 11.8306 34.029 10.5483 37.0255 10.9757L37.8818 11.1894C38.7379 11.4031 39.38 12.2579 40.0221 12.899C39.38 13.3264 38.7377 13.9677 38.7377 14.6088V16.7459C37.2394 17.6006 37.6676 19.5239 34.8851 19.7377C34.029 19.9514 33.6008 20.3788 33.1729 20.8062C32.5307 21.4474 33.3869 22.0886 32.1026 22.0886C31.0324 22.0886 31.6746 20.3788 30.3904 20.1651C29.3202 18.8829 29.9622 17.3868 29.5341 16.1046C28.8921 15.8909 28.8921 15.6773 28.464 15.4635C28.0358 15.0361 28.0358 15.0361 27.3938 15.4635L26.9657 15.8909Z" fill="#CDFAF6"/>
<path fill-rule="evenodd" clip-rule="evenodd" d="M170.8 18.6689H157.958C115.15 18.6689 112.153 58.2049 143.189 58.2049H166.305L160.74 52.6486H143.189C134.413 52.6486 132.701 46.2373 135.698 37.2616C138.694 28.2858 145.758 24.2255 156.674 24.2255H165.449L170.8 18.6689ZM141.905 18.6689H79.4054C35.7414 18.6689 35.5274 58.2049 65.2788 58.2049C74.9105 58.2049 81.9738 55.213 84.1143 46.8784L87.1108 35.552H71.0579L69.9877 39.3987C76.1949 40.0398 74.0544 53.7171 63.5665 53.5033C50.2962 51.3662 54.791 23.5842 78.5493 23.5842H102.736L93.746 57.9913H107.23L116.22 23.5842H130.775C134.413 21.2335 138.052 19.7376 141.905 18.6689Z" fill="#CDFAF6"/>
<path d="M111.725 14.6089C111.939 14.8225 111.939 14.8225 112.153 14.6089C112.367 14.3951 112.367 14.3951 112.153 14.1814C107.016 9.26611 98.0266 6.27421 86.8966 5.6331C75.9807 4.99197 63.1383 6.70155 49.868 10.762C49.4399 10.9757 49.226 10.9758 49.0119 10.9758C33.3871 15.891 20.1166 23.3708 11.341 31.4916C2.56543 39.6124 -1.71535 48.3745 0.63908 56.0679C1.70928 59.7009 4.49186 62.9065 8.34455 65.2574C12.1972 67.6081 17.3341 69.3178 23.3272 70.3863C23.5413 70.3863 23.7552 70.3864 23.7552 70.1726C23.7552 69.959 23.7553 69.7452 23.5413 69.7452C17.5482 68.8904 12.6252 67.1808 8.77253 64.8299C5.13387 62.4792 2.56547 59.7009 1.49529 56.0679C-0.859138 48.8019 3.42156 40.2535 11.9831 32.1327C20.5446 24.0118 33.815 16.7458 49.2258 11.8305C49.6539 11.6168 49.868 11.6169 50.0821 11.6169C63.3525 7.55643 76.1947 5.84672 86.8966 6.48784C97.8125 6.91526 106.588 9.90727 111.725 14.6089Z" fill="#CDFAF6"/>
<path fill-rule="evenodd" clip-rule="evenodd" d="M78.1206 2C80.261 2 82.1876 3.70974 82.1876 6.06055C82.1876 8.19765 80.4751 10.121 78.1206 10.121C75.7662 10.121 74.0537 8.41136 74.0537 6.06055C74.0537 3.70974 75.9801 2 78.1206 2Z" fill="#CDFAF6"/>
<path fill-rule="evenodd" clip-rule="evenodd" d="M45.373 2C56.7171 2 66.7769 7.34268 72.984 15.8909H69.9875C69.5594 15.2499 69.3454 14.8225 68.4893 14.8225C67.205 14.8225 67.205 15.4637 65.9207 15.6773C64.6365 15.8911 63.9944 16.3184 63.1383 16.9596C62.2821 17.8144 61.64 16.9596 60.7839 16.9596C60.3558 16.9596 59.2855 17.387 58.8575 18.4555C58.0013 18.2418 57.7874 17.8143 57.5733 17.1732C58.0014 16.3184 58.8575 16.1047 59.9277 15.4635C60.1418 15.4635 60.3557 14.6087 59.4996 14.8225C58.2154 15.0361 57.3593 15.8911 56.7171 16.7459C56.503 16.9596 56.2891 17.3868 56.5032 17.6006L57.1452 18.6691C55.4329 18.4555 53.9346 19.3103 52.6504 20.5926C52.0082 20.5926 51.5802 20.3789 51.3661 19.9515C52.0082 19.5241 52.6504 19.5241 53.5065 19.5241V18.8829C52.4363 18.2418 51.3661 18.2418 50.0819 18.028C48.3696 17.8144 46.8713 18.6692 46.0152 19.9515C45.373 20.8063 44.731 21.2336 44.9449 22.5159C45.8011 22.5159 46.2293 22.9433 47.0854 22.9433C47.9415 23.1569 48.1555 22.7297 47.7274 22.0886C47.2994 21.02 48.3696 20.5926 48.7977 19.9515L49.4397 20.1651C49.4397 20.8062 47.9416 21.4474 49.0118 21.8748C49.4399 22.0885 50.0818 21.8747 50.5099 21.4473V22.3022C49.0116 22.3022 48.5836 23.7981 47.0854 23.7981C46.2293 23.7981 46.0152 23.3707 45.373 23.5844V24.4392C44.945 24.4392 44.7308 24.8666 44.5169 25.0804L44.3029 25.2942C43.6608 24.8668 43.6607 24.0118 43.0185 23.5844V22.7297C42.8046 22.5159 42.3765 22.5159 42.1625 22.7297V23.3707C42.1625 23.7981 42.1624 23.5845 42.3765 23.7981L42.5905 24.0118L42.8046 25.0804C43.2327 25.0804 43.6607 25.294 43.8747 25.7215C43.6607 25.7215 43.2326 25.9352 43.0185 26.1489C42.5905 26.5763 44.0888 27.4311 43.0185 27.6449L41.5204 27.8586C41.3063 29.1408 42.1624 28.7134 42.3765 29.9957C42.8046 29.3545 43.2327 29.3546 43.6608 28.7134C44.5169 27.8586 44.0888 28.0723 45.159 27.6449C45.5871 27.4311 45.5871 27.4313 46.0152 27.4313L45.8011 28.4998C45.373 28.7134 45.5871 29.1408 45.159 29.1408L43.8747 29.3545C43.0186 29.5682 41.7344 31.0641 40.6641 31.919C38.9519 33.2012 38.9518 35.9795 40.8782 37.048C40.236 40.04 40.2361 43.2455 41.0922 46.4511C43.6608 55.8542 51.7943 60.7695 60.7839 62.0517L59.2857 67.6082C55.0049 69.5315 50.2958 70.6 45.5871 70.6C26.7516 70.6 11.3408 55.213 11.3408 36.4068C11.3408 32.9875 11.7689 29.5682 12.8391 26.3627C13.9093 29.1408 13.4812 32.56 17.3338 33.2012C18.4041 33.4149 19.4743 35.552 22.0427 36.1932C22.899 36.4068 23.113 37.048 23.9691 37.2617C24.6113 37.4754 24.8254 37.6892 24.6113 38.1166C24.6113 38.7577 24.1832 39.3988 24.6113 40.8948C25.2533 42.8181 26.7516 42.8181 26.9657 44.1004C26.5376 46.2375 25.8955 48.1608 25.6815 50.2978C25.4674 53.2897 26.3236 53.5035 27.1797 53.9309C27.3938 54.1445 27.8219 54.1445 27.6079 53.5035C27.6079 53.0761 27.6079 52.8623 27.8218 52.2212L28.2499 50.2978C29.5341 48.1608 32.1027 46.4511 33.601 44.314C34.243 43.4592 34.243 42.3907 34.8851 41.3222C35.0991 40.8948 35.3132 40.681 34.8851 40.2536C33.6008 39.1851 32.5307 39.185 31.2465 38.5439V38.3303C31.2465 37.9029 31.2465 37.4753 30.6043 37.4753L29.5341 37.2617C29.5341 36.6206 28.8921 35.9795 28.2499 35.9795L23.541 36.1932C23.113 35.552 23.1129 35.1247 22.6849 34.9109C22.2568 34.6973 22.471 34.0561 22.2569 33.6287C21.8288 33.2012 21.6147 33.8424 21.1866 33.8424C20.1165 33.8424 20.3305 32.9876 20.3305 32.3464C20.3305 31.4917 21.1866 31.0641 21.8288 31.0641C22.899 31.0641 23.113 31.4917 23.541 31.7053C25.0393 32.3465 23.3269 30.8505 25.2533 29.782C25.6815 29.5682 25.2535 28.9272 25.4674 28.4998C27.1797 27.2175 26.1094 26.5763 30.6043 24.8668C29.5341 23.7981 28.8921 21.8747 27.3938 21.4473C25.2533 21.0198 24.3972 21.8748 24.6113 22.9433V24.4392L23.7551 23.5844C22.4708 22.3021 21.6147 23.1569 20.9726 21.4473L21.8288 20.1651C22.4708 20.5926 22.899 20.5926 23.541 20.1651C24.1832 19.5239 23.3271 18.4555 25.0394 18.2417C24.8254 20.8062 26.7516 21.02 28.464 19.5241L28.8921 19.0965C26.7516 18.028 26.1096 16.3184 24.3972 15.2499L28.0358 11.4032C23.541 10.5483 22.4708 11.6169 20.7586 12.4717C26.7516 6.2742 35.5272 2 45.373 2ZM37.4536 20.1651C38.0957 20.5926 37.6677 21.2336 38.3097 21.4473C38.5238 21.4473 38.7379 21.8747 39.1658 21.4473C39.594 21.0198 40.2361 20.8062 40.4502 20.3788L40.0221 19.9515C39.808 19.5241 39.594 19.5241 39.1658 19.5241C38.5238 19.7377 38.5238 19.9514 37.4536 20.1651ZM25.0394 34.0561C25.0394 33.8424 25.2533 33.8423 25.2533 33.6287C25.0393 33.6287 25.0393 33.6287 24.8252 33.415C24.6112 33.415 24.3972 33.4149 24.1832 33.2012C23.9691 32.9875 23.7551 32.9876 23.7551 32.9876C23.1129 32.9876 23.113 33.415 23.541 33.6287C23.9691 34.0561 24.3971 33.6288 24.8252 33.8424L25.0394 34.0561ZM26.1096 33.8424C26.1096 34.0562 25.6815 34.0561 25.8954 34.2697C26.9657 34.6971 27.8218 34.9109 28.8921 35.5521L29.106 35.1247C28.0358 34.2699 26.9657 34.4835 26.1096 33.8424ZM26.9657 15.8909L26.1096 14.6088C27.1797 13.9677 27.6079 12.0443 28.678 12.0443C31.4605 11.8306 34.029 10.5483 37.0255 10.9757L37.8818 11.1894C38.7379 11.4031 39.38 12.2579 40.0221 12.899C39.38 13.3264 38.7377 13.9677 38.7377 14.6088V16.7459C37.2394 17.6006 37.6676 19.5239 34.8851 19.7377C34.029 19.9514 33.6008 20.3788 33.1729 20.8062C32.5307 21.4474 33.3869 22.0886 32.1026 22.0886C31.0324 22.0886 31.6746 20.3788 30.3904 20.1651C29.3202 18.8829 29.9622 17.3868 29.5341 16.1046C28.8921 15.8909 28.8921 15.6773 28.464 15.4635C28.0358 15.0361 28.0358 15.0361 27.3938 15.4635L26.9657 15.8909Z" fill="#CDFAF6"/>
<path fill-rule="evenodd" clip-rule="evenodd" d="M170.8 18.4629H157.958C115.15 18.4629 112.153 57.9987 143.189 57.9987H166.305L160.74 52.4424H143.189C134.413 52.4424 132.701 46.0311 135.698 37.0554C138.694 28.0798 145.758 24.0194 156.674 24.0194H165.449L170.8 18.4629ZM141.905 18.4629H79.4054C35.7414 18.4629 35.5274 57.9987 65.2788 57.9987C74.9105 57.9987 81.9738 55.007 84.1143 46.6723L87.1108 35.3458H71.0579L69.9877 39.1926C76.1949 39.8336 74.0544 53.5109 63.5665 53.2971C50.2962 51.1602 54.791 23.3782 78.5493 23.3782H102.736L93.746 57.7851H107.23L116.22 23.3782H130.775C134.413 21.0273 138.052 19.5314 141.905 18.4629Z" fill="#CDFAF6"/>
<path d="M111.725 14.6089C111.939 14.8225 111.939 14.8225 112.153 14.6089C112.367 14.3951 112.367 14.3951 112.153 14.1814C107.016 9.26611 98.0266 6.27421 86.8966 5.6331C75.9807 4.99197 63.1383 6.70155 49.868 10.762C49.4399 10.9757 49.226 10.9758 49.0119 10.9758C33.3871 15.891 20.1166 23.3708 11.341 31.4916C2.56543 39.6124 -1.71535 48.3745 0.63908 56.0679C1.70928 59.7009 4.49186 62.9065 8.34455 65.2574C12.1972 67.6081 17.3341 69.3178 23.3272 70.3863C23.5413 70.3863 23.7552 70.3864 23.7552 70.1726C23.7552 69.959 23.7553 69.7452 23.5413 69.7452C17.5482 68.8904 12.6252 67.1808 8.77253 64.8299C5.13387 62.4792 2.56547 59.7009 1.49529 56.0679C-0.859138 48.8019 3.42156 40.2535 11.9831 32.1327C20.5446 24.0118 33.815 16.7458 49.2258 11.8305C49.6539 11.6168 49.868 11.6169 50.0821 11.6169C63.3525 7.55643 76.1947 5.84672 86.8966 6.48784C97.8125 6.91526 106.588 9.90727 111.725 14.6089Z" fill="#CDFAF6"/>
<path fill-rule="evenodd" clip-rule="evenodd" d="M78.1206 2C80.261 2 82.1876 3.70974 82.1876 6.06055C82.1876 8.19765 80.4751 10.121 78.1206 10.121C75.7662 10.121 74.0537 8.41136 74.0537 6.06055C74.0537 3.70974 75.9801 2 78.1206 2Z" fill="#CDFAF6"/>
<path d="M78.4073 10.3996C81.1137 10.3996 83.3077 8.2058 83.3077 5.49961C83.3077 2.79341 81.1137 0.599609 78.4073 0.599609C75.7008 0.599609 73.5068 2.79341 73.5068 5.49961C73.5068 8.2058 75.7008 10.3996 78.4073 10.3996Z" fill="#CDFAF6"/>
</g>
<defs>
<clipPath id="clip0_238_1535">
<rect width="170.8" height="70" fill="white" transform="translate(0 0.599609)"/>
</clipPath>
</defs>
</svg>
