<svg width="171" height="70" viewBox="0 0 171 70" fill="none" xmlns="http://www.w3.org/2000/svg">
<g clip-path="url(#clip0_227_412)">
<path fill-rule="evenodd" clip-rule="evenodd" d="M45.373 1.3999C56.7171 1.3999 66.7769 6.74258 72.984 15.2908H69.9875C69.5594 14.6498 69.3454 14.2224 68.4893 14.2224C67.205 14.2224 67.205 14.8636 65.9207 15.0772C64.6365 15.291 63.9944 15.7183 63.1383 16.3595C62.2821 17.2143 61.64 16.3595 60.7839 16.3595C60.3558 16.3595 59.2855 16.7869 58.8575 17.8554C58.0013 17.6417 57.7874 17.2142 57.5733 16.5731C58.0014 15.7183 58.8575 15.5046 59.9277 14.8634C60.1418 14.8634 60.3557 14.0086 59.4996 14.2224C58.2154 14.436 57.3593 15.291 56.7171 16.1458C56.503 16.3595 56.2891 16.7867 56.5032 17.0005L57.1452 18.069C55.4329 17.8554 53.9346 18.7102 52.6504 19.9925C52.0082 19.9925 51.5802 19.7788 51.3661 19.3514C52.0082 18.924 52.6504 18.924 53.5065 18.924V18.2828C52.4363 17.6417 51.3661 17.6417 50.0819 17.4279C48.3696 17.2143 46.8713 18.0691 46.0152 19.3514C45.373 20.2062 44.731 20.6335 44.9449 21.9158C45.8011 21.9158 46.2293 22.3432 47.0854 22.3432C47.9415 22.5568 48.1555 22.1296 47.7274 21.4885C47.2994 20.4199 48.3696 19.9925 48.7977 19.3514L49.4397 19.565C49.4397 20.2061 47.9416 20.8473 49.0118 21.2747C49.4399 21.4884 50.0818 21.2746 50.5099 20.8472V21.7021C49.0116 21.7021 48.5836 23.198 47.0854 23.198C46.2293 23.198 46.0152 22.7706 45.373 22.9843V23.8391C44.945 23.8391 44.7308 24.2665 44.5169 24.4803L44.3029 24.6941C43.6608 24.2667 43.6607 23.4117 43.0185 22.9843V22.1296C42.8046 21.9158 42.3765 21.9158 42.1625 22.1296V22.7706C42.1625 23.198 42.1624 22.9844 42.3765 23.198L42.5905 23.4117L42.8046 24.4803C43.2327 24.4803 43.6607 24.6939 43.8747 25.1214C43.6607 25.1214 43.2326 25.3351 43.0185 25.5488C42.5905 25.9762 44.0888 26.831 43.0185 27.0448L41.5204 27.2585C41.3063 28.5407 42.1624 28.1133 42.3765 29.3956C42.8046 28.7544 43.2327 28.7545 43.6608 28.1133C44.5169 27.2585 44.0888 27.4722 45.159 27.0448C45.5871 26.831 45.5871 26.8312 46.0152 26.8312L45.8011 27.8997C45.373 28.1133 45.5871 28.5407 45.159 28.5407L43.8747 28.7544C43.0186 28.9681 41.7344 30.464 40.6641 31.3189C38.9519 32.6011 38.9518 35.3794 40.8782 36.4479C40.236 39.4399 40.2361 42.6454 41.0922 45.851C43.6608 55.2541 51.7943 60.1694 60.7839 61.4516L59.2857 67.0081C55.0049 68.9314 50.2958 69.9999 45.5871 69.9999C26.7516 69.9999 11.3408 54.6129 11.3408 35.8067C11.3408 32.3874 11.7689 28.9681 12.8391 25.7626C13.9093 28.5407 13.4812 31.9599 17.3338 32.6011C18.4041 32.8148 19.4743 34.9519 22.0427 35.5931C22.899 35.8067 23.113 36.4479 23.9691 36.6616C24.6113 36.8753 24.8254 37.0891 24.6113 37.5165C24.6113 38.1576 24.1832 38.7987 24.6113 40.2947C25.2533 42.218 26.7516 42.218 26.9657 43.5003C26.5376 45.6374 25.8955 47.5607 25.6815 49.6977C25.4674 52.6896 26.3236 52.9034 27.1797 53.3308C27.3938 53.5444 27.8219 53.5444 27.6079 52.9034C27.6079 52.476 27.6079 52.2622 27.8218 51.6211L28.2499 49.6977C29.5341 47.5607 32.1027 45.851 33.601 43.7139C34.243 42.8591 34.243 41.7906 34.8851 40.7221C35.0991 40.2947 35.3132 40.0809 34.8851 39.6535C33.6008 38.585 32.5307 38.5849 31.2465 37.9438V37.7302C31.2465 37.3028 31.2465 36.8752 30.6043 36.8752L29.5341 36.6616C29.5341 36.0205 28.8921 35.3794 28.2499 35.3794L23.541 35.5931C23.113 34.9519 23.1129 34.5246 22.6849 34.3108C22.2568 34.0972 22.471 33.456 22.2569 33.0286C21.8288 32.6011 21.6147 33.2423 21.1866 33.2423C20.1165 33.2423 20.3305 32.3875 20.3305 31.7463C20.3305 30.8916 21.1866 30.464 21.8288 30.464C22.899 30.464 23.113 30.8916 23.541 31.1052C25.0393 31.7464 23.3269 30.2504 25.2533 29.1819C25.6815 28.9681 25.2535 28.3271 25.4674 27.8997C27.1797 26.6174 26.1094 25.9762 30.6043 24.2667C29.5341 23.198 28.8921 21.2746 27.3938 20.8472C25.2533 20.4197 24.3972 21.2747 24.6113 22.3432V23.8391L23.7551 22.9843C22.4708 21.702 21.6147 22.5568 20.9726 20.8472L21.8288 19.565C22.4708 19.9925 22.899 19.9925 23.541 19.565C24.1832 18.9238 23.3271 17.8554 25.0394 17.6416C24.8254 20.2061 26.7516 20.4199 28.464 18.924L28.8921 18.4964C26.7516 17.4279 26.1096 15.7183 24.3972 14.6498L28.0358 10.8031C23.541 9.94825 22.4708 11.0168 20.7586 11.8716C26.7516 5.6741 35.5272 1.3999 45.373 1.3999ZM37.4536 19.565C38.0957 19.9925 37.6677 20.6335 38.3097 20.8472C38.5238 20.8472 38.7379 21.2746 39.1658 20.8472C39.594 20.4197 40.2361 20.2061 40.4502 19.7787L40.0221 19.3514C39.808 18.924 39.594 18.924 39.1658 18.924C38.5238 19.1376 38.5238 19.3513 37.4536 19.565ZM25.0394 33.456C25.0394 33.2423 25.2533 33.2422 25.2533 33.0286C25.0393 33.0286 25.0393 33.0286 24.8252 32.8149C24.6112 32.8149 24.3972 32.8148 24.1832 32.6011C23.9691 32.3874 23.7551 32.3875 23.7551 32.3875C23.1129 32.3875 23.113 32.8149 23.541 33.0286C23.9691 33.456 24.3971 33.0287 24.8252 33.2423L25.0394 33.456ZM26.1096 33.2423C26.1096 33.4561 25.6815 33.456 25.8954 33.6696C26.9657 34.097 27.8218 34.3108 28.8921 34.952L29.106 34.5246C28.0358 33.6698 26.9657 33.8834 26.1096 33.2423ZM26.9657 15.2908L26.1096 14.0087C27.1797 13.3676 27.6079 11.4442 28.678 11.4442C31.4605 11.2305 34.029 9.94822 37.0255 10.3756L37.8818 10.5893C38.7379 10.803 39.38 11.6578 40.0221 12.2989C39.38 12.7263 38.7377 13.3676 38.7377 14.0087V16.1458C37.2394 17.0005 37.6676 18.9238 34.8851 19.1376C34.029 19.3513 33.6008 19.7787 33.1729 20.2061C32.5307 20.8473 33.3869 21.4885 32.1026 21.4885C31.0324 21.4885 31.6746 19.7787 30.3904 19.565C29.3202 18.2828 29.9622 16.7867 29.5341 15.5045C28.8921 15.2908 28.8921 15.0772 28.464 14.8634C28.0358 14.436 28.0358 14.436 27.3938 14.8634L26.9657 15.2908Z" fill="#11A0A3"/>
<path fill-rule="evenodd" clip-rule="evenodd" d="M170.8 18.0693H157.958C115.15 18.0693 112.153 57.6053 143.189 57.6053H166.305L160.74 52.049H143.189C134.413 52.049 132.701 45.6377 135.698 36.662C138.694 27.6862 145.758 23.6259 156.674 23.6259H165.449L170.8 18.0693ZM141.905 18.0693H79.4054C35.7414 18.0693 35.5274 57.6053 65.2788 57.6053C74.9105 57.6053 81.9738 54.6134 84.1143 46.2788L87.1108 34.9524H71.0579L69.9877 38.7991C76.1949 39.4402 74.0544 53.1175 63.5665 52.9037C50.2962 50.7666 54.791 22.9846 78.5493 22.9846H102.736L93.746 57.3917H107.23L116.22 22.9846H130.775C134.413 20.6339 138.052 19.138 141.905 18.0693Z" fill="#6F6F6E"/>
<path d="M111.725 14.0089C111.939 14.2225 111.939 14.2225 112.153 14.0089C112.367 13.7951 112.367 13.7951 112.153 13.5814C107.016 8.66614 98.0266 5.67424 86.8966 5.03312C75.9807 4.39199 63.1383 6.10157 49.868 10.162C49.4399 10.3757 49.226 10.3758 49.0119 10.3758C33.3871 15.291 20.1166 22.7708 11.341 30.8916C2.56543 39.0125 -1.71535 47.7745 0.63908 55.4679C1.70928 59.1009 4.49186 62.3065 8.34455 64.6574C12.1972 67.0081 17.3341 68.7178 23.3272 69.7863C23.5413 69.7863 23.7552 69.7864 23.7552 69.5726C23.7552 69.359 23.7553 69.1452 23.5413 69.1452C17.5482 68.2904 12.6252 66.5808 8.77253 64.23C5.13387 61.8792 2.56547 59.1009 1.49529 55.4679C-0.859138 48.2019 3.42156 39.6535 11.9831 31.5327C20.5446 23.4118 33.815 16.1458 49.2258 11.2305C49.6539 11.0168 49.868 11.0169 50.0821 11.0169C63.3525 6.95646 76.1947 5.24675 86.8966 5.88786C97.8125 6.31528 106.588 9.30729 111.725 14.0089Z" fill="#6F6F6E"/>
<path fill-rule="evenodd" clip-rule="evenodd" d="M78.1206 1.3999C80.261 1.3999 82.1876 3.10964 82.1876 5.46045C82.1876 7.59755 80.4751 9.52087 78.1206 9.52087C75.7662 9.52087 74.0537 7.81126 74.0537 5.46045C74.0537 3.10964 75.9801 1.3999 78.1206 1.3999Z" fill="#11A0A3"/>
<path fill-rule="evenodd" clip-rule="evenodd" d="M45.373 1.3999C56.7171 1.3999 66.7769 6.74258 72.984 15.2908H69.9875C69.5594 14.6498 69.3454 14.2224 68.4893 14.2224C67.205 14.2224 67.205 14.8636 65.9207 15.0772C64.6365 15.291 63.9944 15.7183 63.1383 16.3595C62.2821 17.2143 61.64 16.3595 60.7839 16.3595C60.3558 16.3595 59.2855 16.7869 58.8575 17.8554C58.0013 17.6417 57.7874 17.2142 57.5733 16.5731C58.0014 15.7183 58.8575 15.5046 59.9277 14.8634C60.1418 14.8634 60.3557 14.0086 59.4996 14.2224C58.2154 14.436 57.3593 15.291 56.7171 16.1458C56.503 16.3595 56.2891 16.7867 56.5032 17.0005L57.1452 18.069C55.4329 17.8554 53.9346 18.7102 52.6504 19.9925C52.0082 19.9925 51.5802 19.7788 51.3661 19.3514C52.0082 18.924 52.6504 18.924 53.5065 18.924V18.2828C52.4363 17.6417 51.3661 17.6417 50.0819 17.4279C48.3696 17.2143 46.8713 18.0691 46.0152 19.3514C45.373 20.2062 44.731 20.6335 44.9449 21.9158C45.8011 21.9158 46.2293 22.3432 47.0854 22.3432C47.9415 22.5568 48.1555 22.1296 47.7274 21.4885C47.2994 20.4199 48.3696 19.9925 48.7977 19.3514L49.4397 19.565C49.4397 20.2061 47.9416 20.8473 49.0118 21.2747C49.4399 21.4884 50.0818 21.2746 50.5099 20.8472V21.7021C49.0116 21.7021 48.5836 23.198 47.0854 23.198C46.2293 23.198 46.0152 22.7706 45.373 22.9843V23.8391C44.945 23.8391 44.7308 24.2665 44.5169 24.4803L44.3029 24.6941C43.6608 24.2667 43.6607 23.4117 43.0185 22.9843V22.1296C42.8046 21.9158 42.3765 21.9158 42.1625 22.1296V22.7706C42.1625 23.198 42.1624 22.9844 42.3765 23.198L42.5905 23.4117L42.8046 24.4803C43.2327 24.4803 43.6607 24.6939 43.8747 25.1214C43.6607 25.1214 43.2326 25.3351 43.0185 25.5488C42.5905 25.9762 44.0888 26.831 43.0185 27.0448L41.5204 27.2585C41.3063 28.5407 42.1624 28.1133 42.3765 29.3956C42.8046 28.7544 43.2327 28.7545 43.6608 28.1133C44.5169 27.2585 44.0888 27.4722 45.159 27.0448C45.5871 26.831 45.5871 26.8312 46.0152 26.8312L45.8011 27.8997C45.373 28.1133 45.5871 28.5407 45.159 28.5407L43.8747 28.7544C43.0186 28.9681 41.7344 30.464 40.6641 31.3189C38.9519 32.6011 38.9518 35.3794 40.8782 36.4479C40.236 39.4399 40.2361 42.6454 41.0922 45.851C43.6608 55.2541 51.7943 60.1694 60.7839 61.4516L59.2857 67.0081C55.0049 68.9314 50.2958 69.9999 45.5871 69.9999C26.7516 69.9999 11.3408 54.6129 11.3408 35.8067C11.3408 32.3874 11.7689 28.9681 12.8391 25.7626C13.9093 28.5407 13.4812 31.9599 17.3338 32.6011C18.4041 32.8148 19.4743 34.9519 22.0427 35.5931C22.899 35.8067 23.113 36.4479 23.9691 36.6616C24.6113 36.8753 24.8254 37.0891 24.6113 37.5165C24.6113 38.1576 24.1832 38.7987 24.6113 40.2947C25.2533 42.218 26.7516 42.218 26.9657 43.5003C26.5376 45.6374 25.8955 47.5607 25.6815 49.6977C25.4674 52.6896 26.3236 52.9034 27.1797 53.3308C27.3938 53.5444 27.8219 53.5444 27.6079 52.9034C27.6079 52.476 27.6079 52.2622 27.8218 51.6211L28.2499 49.6977C29.5341 47.5607 32.1027 45.851 33.601 43.7139C34.243 42.8591 34.243 41.7906 34.8851 40.7221C35.0991 40.2947 35.3132 40.0809 34.8851 39.6535C33.6008 38.585 32.5307 38.5849 31.2465 37.9438V37.7302C31.2465 37.3028 31.2465 36.8752 30.6043 36.8752L29.5341 36.6616C29.5341 36.0205 28.8921 35.3794 28.2499 35.3794L23.541 35.5931C23.113 34.9519 23.1129 34.5246 22.6849 34.3108C22.2568 34.0972 22.471 33.456 22.2569 33.0286C21.8288 32.6011 21.6147 33.2423 21.1866 33.2423C20.1165 33.2423 20.3305 32.3875 20.3305 31.7463C20.3305 30.8916 21.1866 30.464 21.8288 30.464C22.899 30.464 23.113 30.8916 23.541 31.1052C25.0393 31.7464 23.3269 30.2504 25.2533 29.1819C25.6815 28.9681 25.2535 28.3271 25.4674 27.8997C27.1797 26.6174 26.1094 25.9762 30.6043 24.2667C29.5341 23.198 28.8921 21.2746 27.3938 20.8472C25.2533 20.4197 24.3972 21.2747 24.6113 22.3432V23.8391L23.7551 22.9843C22.4708 21.702 21.6147 22.5568 20.9726 20.8472L21.8288 19.565C22.4708 19.9925 22.899 19.9925 23.541 19.565C24.1832 18.9238 23.3271 17.8554 25.0394 17.6416C24.8254 20.2061 26.7516 20.4199 28.464 18.924L28.8921 18.4964C26.7516 17.4279 26.1096 15.7183 24.3972 14.6498L28.0358 10.8031C23.541 9.94825 22.4708 11.0168 20.7586 11.8716C26.7516 5.6741 35.5272 1.3999 45.373 1.3999ZM37.4536 19.565C38.0957 19.9925 37.6677 20.6335 38.3097 20.8472C38.5238 20.8472 38.7379 21.2746 39.1658 20.8472C39.594 20.4197 40.2361 20.2061 40.4502 19.7787L40.0221 19.3514C39.808 18.924 39.594 18.924 39.1658 18.924C38.5238 19.1376 38.5238 19.3513 37.4536 19.565ZM25.0394 33.456C25.0394 33.2423 25.2533 33.2422 25.2533 33.0286C25.0393 33.0286 25.0393 33.0286 24.8252 32.8149C24.6112 32.8149 24.3972 32.8148 24.1832 32.6011C23.9691 32.3874 23.7551 32.3875 23.7551 32.3875C23.1129 32.3875 23.113 32.8149 23.541 33.0286C23.9691 33.456 24.3971 33.0287 24.8252 33.2423L25.0394 33.456ZM26.1096 33.2423C26.1096 33.4561 25.6815 33.456 25.8954 33.6696C26.9657 34.097 27.8218 34.3108 28.8921 34.952L29.106 34.5246C28.0358 33.6698 26.9657 33.8834 26.1096 33.2423ZM26.9657 15.2908L26.1096 14.0087C27.1797 13.3676 27.6079 11.4442 28.678 11.4442C31.4605 11.2305 34.029 9.94822 37.0255 10.3756L37.8818 10.5893C38.7379 10.803 39.38 11.6578 40.0221 12.2989C39.38 12.7263 38.7377 13.3676 38.7377 14.0087V16.1458C37.2394 17.0005 37.6676 18.9238 34.8851 19.1376C34.029 19.3513 33.6008 19.7787 33.1729 20.2061C32.5307 20.8473 33.3869 21.4885 32.1026 21.4885C31.0324 21.4885 31.6746 19.7787 30.3904 19.565C29.3202 18.2828 29.9622 16.7867 29.5341 15.5045C28.8921 15.2908 28.8921 15.0772 28.464 14.8634C28.0358 14.436 28.0358 14.436 27.3938 14.8634L26.9657 15.2908Z" fill="#11A0A3"/>
<path fill-rule="evenodd" clip-rule="evenodd" d="M170.8 17.8635H157.958C115.15 17.8635 112.153 57.3994 143.189 57.3994H166.305L160.74 51.8431H143.189C134.413 51.8431 132.701 45.4318 135.698 36.4561C138.694 27.4804 145.758 23.42 156.674 23.42H165.449L170.8 17.8635ZM141.905 17.8635H79.4054C35.7414 17.8635 35.5274 57.3994 65.2788 57.3994C74.9105 57.3994 81.9738 54.4076 84.1143 46.073L87.1108 34.7464H71.0579L69.9877 38.5932C76.1949 39.2342 74.0544 52.9115 63.5665 52.6978C50.2962 50.5608 54.791 22.7788 78.5493 22.7788H102.736L93.746 57.1857H107.23L116.22 22.7788H130.775C134.413 20.4279 138.052 18.932 141.905 17.8635Z" fill="#646463"/>
<path d="M111.725 14.0089C111.939 14.2225 111.939 14.2225 112.153 14.0089C112.367 13.7951 112.367 13.7951 112.153 13.5814C107.016 8.66614 98.0266 5.67424 86.8966 5.03312C75.9807 4.39199 63.1383 6.10157 49.868 10.162C49.4399 10.3757 49.226 10.3758 49.0119 10.3758C33.3871 15.291 20.1166 22.7708 11.341 30.8916C2.56543 39.0125 -1.71535 47.7745 0.63908 55.4679C1.70928 59.1009 4.49186 62.3065 8.34455 64.6574C12.1972 67.0081 17.3341 68.7178 23.3272 69.7863C23.5413 69.7863 23.7552 69.7864 23.7552 69.5726C23.7552 69.359 23.7553 69.1452 23.5413 69.1452C17.5482 68.2904 12.6252 66.5808 8.77253 64.23C5.13387 61.8792 2.56547 59.1009 1.49529 55.4679C-0.859138 48.2019 3.42156 39.6535 11.9831 31.5327C20.5446 23.4118 33.815 16.1458 49.2258 11.2305C49.6539 11.0168 49.868 11.0169 50.0821 11.0169C63.3525 6.95646 76.1947 5.24675 86.8966 5.88786C97.8125 6.31528 106.588 9.30729 111.725 14.0089Z" fill="#646463"/>
<path fill-rule="evenodd" clip-rule="evenodd" d="M78.1206 1.3999C80.261 1.3999 82.1876 3.10964 82.1876 5.46045C82.1876 7.59755 80.4751 9.52087 78.1206 9.52087C75.7662 9.52087 74.0537 7.81126 74.0537 5.46045C74.0537 3.10964 75.9801 1.3999 78.1206 1.3999Z" fill="#11A0A3"/>
<path d="M78.4073 9.79988C81.1137 9.79988 83.3077 7.60607 83.3077 4.89988C83.3077 2.19368 81.1137 -0.00012207 78.4073 -0.00012207C75.7008 -0.00012207 73.5068 2.19368 73.5068 4.89988C73.5068 7.60607 75.7008 9.79988 78.4073 9.79988Z" fill="#FAB502"/>
</g>
<defs>
<clipPath id="clip0_227_412">
<rect width="170.8" height="70" fill="white"/>
</clipPath>
</defs>
</svg>
