<svg xmlns="http://www.w3.org/2000/svg" xmlns:xlink="http://www.w3.org/1999/xlink" preserveAspectRatio="xMidYMid meet" width="200" height="80" viewBox="0 0 200 80" style="width:100%;height:100%"><defs><animate repeatCount="indefinite" dur="3s" begin="0s" xlink:href="#_R_G_L_1_G" fill="freeze" attributeName="opacity" from="1" to="1" keyTimes="0;0.1444444;0.1555556;0.3666667;0.3777778;1" values="1;1;0;0;1;1" keySplines="0.167 0.167 0.833 0.833;0.167 0.167 0.833 0.833;0.167 0.167 0.833 0.833;0.167 0.167 0.833 0.833;0 0 0 0" calcMode="spline"/><animateMotion repeatCount="indefinite" dur="3s" begin="0s" xlink:href="#_R_G_L_1_G" fill="freeze" keyTimes="0;0.1444444;0.4;0.6666667;1" path="M92.75 9.75 C112.47,10.51 123.48,13.96 128.19,18.93 C147.37,39.18 61.56,84.51 33.58,73.61 C-23.11,51.54 60.27,9.71 92.75,9.75 C92.75,9.75 92.75,9.75 92.75,9.75 " keyPoints="0;0.13;0.56;1;1" keySplines="0.333 0 0.667 0.416;0.333 0.313 0.667 0.785;0.333 0.222 0.667 1;0 0 0 0" calcMode="spline"/><animateTransform repeatCount="indefinite" dur="3s" begin="0s" xlink:href="#_R_G_L_1_G" fill="freeze" attributeName="transform" from="-78.25 -4.75" to="-78.25 -4.75" type="translate" additive="sum" keyTimes="0;1" values="-78.25 -4.75;-78.25 -4.75" keySplines="0 0 1 1" calcMode="spline"/><animate attributeType="XML" attributeName="opacity" dur="3s" from="0" to="1" xlink:href="#time_group"/></defs><g id="_R_G"><g id="_R_G_L_2_G" transform=" translate(100, 40) translate(-85.5, -35)"><path id="_R_G_L_2_G_D_0_P_0" fill="#11a0a3" fill-opacity="1" fill-rule="nonzero" d=" M45.37 1.4 C56.72,1.4 66.78,6.74 72.98,15.29 C72.98,15.29 69.99,15.29 69.99,15.29 C69.56,14.65 69.35,14.22 68.49,14.22 C67.2,14.22 67.2,14.86 65.92,15.08 C64.64,15.29 64,15.72 63.14,16.36 C62.28,17.21 61.64,16.36 60.78,16.36 C60.36,16.36 59.29,16.79 58.86,17.86 C58,17.64 57.79,17.21 57.57,16.57 C58,15.72 58.86,15.51 59.93,14.86 C60.14,14.86 60.36,14.01 59.5,14.22 C58.22,14.44 57.36,15.29 56.72,16.15 C56.5,16.36 56.29,16.79 56.5,17 C56.5,17 57.15,18.07 57.15,18.07 C55.43,17.86 53.93,18.71 52.65,19.99 C52.01,19.99 51.58,19.78 51.37,19.35 C52.01,18.92 52.65,18.92 53.51,18.92 C53.51,18.92 53.51,18.28 53.51,18.28 C52.44,17.64 51.36,17.64 50.08,17.43 C48.37,17.21 46.87,18.07 46.01,19.35 C45.37,20.21 44.73,20.63 44.95,21.92 C45.8,21.92 46.23,22.34 47.09,22.34 C47.94,22.56 48.16,22.13 47.73,21.49 C47.3,20.42 48.37,19.99 48.8,19.35 C48.8,19.35 49.44,19.57 49.44,19.57 C49.44,20.21 47.94,20.85 49.01,21.28 C49.44,21.49 50.08,21.28 50.51,20.85 C50.51,20.85 50.51,21.7 50.51,21.7 C49.01,21.7 48.58,23.2 47.09,23.2 C46.23,23.2 46.01,22.77 45.37,22.98 C45.37,22.98 45.37,23.84 45.37,23.84 C44.94,23.84 44.73,24.27 44.52,24.48 C44.52,24.48 44.3,24.69 44.3,24.69 C43.66,24.27 43.66,23.41 43.02,22.98 C43.02,22.98 43.02,22.13 43.02,22.13 C42.81,21.92 42.38,21.92 42.16,22.13 C42.16,22.13 42.16,22.77 42.16,22.77 C42.16,23.2 42.16,22.99 42.38,23.2 C42.38,23.2 42.59,23.41 42.59,23.41 C42.59,23.41 42.81,24.48 42.81,24.48 C43.23,24.48 43.66,24.69 43.87,25.12 C43.66,25.12 43.23,25.34 43.02,25.55 C42.59,25.98 44.09,26.83 43.02,27.05 C43.02,27.05 41.52,27.26 41.52,27.26 C41.31,28.54 42.16,28.11 42.38,29.4 C42.81,28.76 43.23,28.76 43.66,28.11 C44.52,27.26 44.09,27.47 45.16,27.05 C45.59,26.83 45.59,26.83 46.01,26.83 C46.01,26.83 45.8,27.9 45.8,27.9 C45.37,28.11 45.59,28.54 45.16,28.54 C45.16,28.54 43.87,28.76 43.87,28.76 C43.02,28.97 41.73,30.46 40.66,31.32 C38.95,32.6 38.95,35.38 40.88,36.45 C40.24,39.44 40.24,42.65 41.09,45.85 C43.66,55.25 51.8,60.17 60.78,61.45 C60.78,61.45 59.29,67.01 59.29,67.01 C55.01,68.93 50.3,70 45.59,70 C26.75,70 11.34,54.61 11.34,35.81 C11.34,32.39 11.77,28.97 12.84,25.76 C13.91,28.54 13.48,31.96 17.33,32.6 C18.4,32.82 19.47,34.95 22.04,35.59 C22.9,35.81 23.11,36.45 23.97,36.66 C24.61,36.88 24.83,37.09 24.61,37.52 C24.61,38.16 24.18,38.8 24.61,40.3 C25.25,42.22 26.75,42.22 26.97,43.5 C26.54,45.64 25.9,47.56 25.68,49.7 C25.47,52.69 26.32,52.9 27.18,53.33 C27.39,53.55 27.82,53.55 27.61,52.9 C27.61,52.48 27.61,52.26 27.82,51.62 C27.82,51.62 28.25,49.7 28.25,49.7 C29.53,47.56 32.1,45.85 33.6,43.71 C34.24,42.86 34.24,41.79 34.89,40.72 C35.1,40.3 35.31,40.08 34.89,39.65 C33.6,38.59 32.53,38.59 31.25,37.94 C31.25,37.94 31.25,37.73 31.25,37.73 C31.25,37.3 31.25,36.88 30.6,36.88 C30.6,36.88 29.53,36.66 29.53,36.66 C29.53,36.02 28.89,35.38 28.25,35.38 C28.25,35.38 23.54,35.59 23.54,35.59 C23.11,34.95 23.11,34.53 22.69,34.31 C22.26,34.1 22.47,33.46 22.26,33.03 C21.83,32.6 21.62,33.24 21.19,33.24 C20.12,33.24 20.33,32.39 20.33,31.75 C20.33,30.89 21.19,30.46 21.83,30.46 C22.9,30.46 23.11,30.89 23.54,31.11 C25.04,31.75 23.33,30.25 25.25,29.18 C25.68,28.97 25.25,28.33 25.47,27.9 C27.18,26.62 26.11,25.98 30.6,24.27 C29.53,23.2 28.89,21.28 27.39,20.85 C25.25,20.42 24.4,21.28 24.61,22.34 C24.61,22.34 24.61,23.84 24.61,23.84 C24.61,23.84 23.75,22.98 23.75,22.98 C22.47,21.7 21.62,22.56 20.97,20.85 C20.97,20.85 21.83,19.57 21.83,19.57 C22.47,19.99 22.9,19.99 23.54,19.57 C24.18,18.92 23.33,17.86 25.04,17.64 C24.83,20.21 26.75,20.42 28.46,18.92 C28.46,18.92 28.89,18.5 28.89,18.5 C26.75,17.43 26.11,15.72 24.4,14.65 C24.4,14.65 28.04,10.8 28.04,10.8 C23.54,9.95 22.47,11.02 20.76,11.87 C26.75,5.67 35.53,1.4 45.37,1.4z  M37.45 19.57 C38.1,19.99 37.67,20.63 38.31,20.85 C38.52,20.85 38.74,21.28 39.17,20.85 C39.59,20.42 40.24,20.21 40.45,19.78 C40.45,19.78 40.02,19.35 40.02,19.35 C39.81,18.92 39.59,18.92 39.17,18.92 C38.52,19.14 38.52,19.35 37.45,19.57z  M25.04 33.46 C25.04,33.24 25.25,33.24 25.25,33.03 C25.04,33.03 25.04,33.03 24.83,32.82 C24.61,32.82 24.4,32.82 24.18,32.6 C23.97,32.39 23.75,32.39 23.75,32.39 C23.11,32.39 23.11,32.82 23.54,33.03 C23.97,33.46 24.4,33.03 24.83,33.24 C24.83,33.24 25.04,33.46 25.04,33.46z  M26.11 33.24 C26.11,33.46 25.68,33.46 25.9,33.67 C26.97,34.1 27.82,34.31 28.89,34.95 C28.89,34.95 29.1,34.53 29.1,34.53 C28.03,33.67 26.96,33.88 26.11,33.24z  M26.97 15.29 C26.97,15.29 26.11,14.01 26.11,14.01 C27.18,13.37 27.61,11.44 28.68,11.44 C31.46,11.23 34.03,9.95 37.03,10.38 C37.03,10.38 37.88,10.59 37.88,10.59 C38.74,10.8 39.38,11.66 40.02,12.3 C39.38,12.73 38.74,13.37 38.74,14.01 C38.74,14.01 38.74,16.15 38.74,16.15 C37.24,17 37.67,18.92 34.89,19.14 C34.03,19.35 33.6,19.78 33.17,20.21 C32.53,20.85 33.39,21.49 32.1,21.49 C31.03,21.49 31.67,19.78 30.39,19.57 C29.32,18.28 29.96,16.79 29.53,15.51 C28.89,15.29 28.89,15.08 28.46,14.86 C28.03,14.44 28.04,14.44 27.39,14.86 C27.39,14.86 26.97,15.29 26.97,15.29z "/><path id="_R_G_L_2_G_D_1_P_0" fill="#6f6f6e" fill-opacity="1" fill-rule="nonzero" d=" M111.73 14.01 C111.94,14.22 111.94,14.22 112.15,14.01 C112.37,13.8 112.37,13.79 112.15,13.58 C107.02,8.67 98.03,5.67 86.9,5.03 C75.98,4.39 63.14,6.1 49.87,10.16 C49.44,10.38 49.23,10.38 49.01,10.38 C33.39,15.29 20.12,22.77 11.34,30.89 C2.57,39.01 -1.71,47.78 0.64,55.47 C1.71,59.1 4.49,62.31 8.34,64.66 C12.2,67.01 17.33,68.72 23.33,69.79 C23.54,69.79 23.76,69.79 23.76,69.57 C23.76,69.36 23.75,69.15 23.54,69.15 C17.55,68.29 12.62,66.58 8.77,64.23 C5.13,61.88 2.56,59.1 1.49,55.47 C-0.86,48.2 3.42,39.65 11.98,31.53 C20.54,23.41 33.81,16.15 49.23,11.23 C49.65,11.02 49.87,11.02 50.08,11.02 C63.35,6.96 76.19,5.25 86.9,5.89 C97.81,6.31 106.59,9.31 111.73,14.01z "/><path id="_R_G_L_2_G_D_2_P_0" fill="#11a0a3" fill-opacity="1" fill-rule="nonzero" d=" M45.37 1.4 C56.72,1.4 66.78,6.74 72.98,15.29 C72.98,15.29 69.99,15.29 69.99,15.29 C69.56,14.65 69.35,14.22 68.49,14.22 C67.2,14.22 67.2,14.86 65.92,15.08 C64.64,15.29 64,15.72 63.14,16.36 C62.28,17.21 61.64,16.36 60.78,16.36 C60.36,16.36 59.29,16.79 58.86,17.86 C58,17.64 57.79,17.21 57.57,16.57 C58,15.72 58.86,15.51 59.93,14.86 C60.14,14.86 60.36,14.01 59.5,14.22 C58.22,14.44 57.36,15.29 56.72,16.15 C56.5,16.36 56.29,16.79 56.5,17 C56.5,17 57.15,18.07 57.15,18.07 C55.43,17.86 53.93,18.71 52.65,19.99 C52.01,19.99 51.58,19.78 51.37,19.35 C52.01,18.92 52.65,18.92 53.51,18.92 C53.51,18.92 53.51,18.28 53.51,18.28 C52.44,17.64 51.36,17.64 50.08,17.43 C48.37,17.21 46.87,18.07 46.01,19.35 C45.37,20.21 44.73,20.63 44.95,21.92 C45.8,21.92 46.23,22.34 47.09,22.34 C47.94,22.56 48.16,22.13 47.73,21.49 C47.3,20.42 48.37,19.99 48.8,19.35 C48.8,19.35 49.44,19.57 49.44,19.57 C49.44,20.21 47.94,20.85 49.01,21.28 C49.44,21.49 50.08,21.28 50.51,20.85 C50.51,20.85 50.51,21.7 50.51,21.7 C49.01,21.7 48.58,23.2 47.09,23.2 C46.23,23.2 46.01,22.77 45.37,22.98 C45.37,22.98 45.37,23.84 45.37,23.84 C44.94,23.84 44.73,24.27 44.52,24.48 C44.52,24.48 44.3,24.69 44.3,24.69 C43.66,24.27 43.66,23.41 43.02,22.98 C43.02,22.98 43.02,22.13 43.02,22.13 C42.81,21.92 42.38,21.92 42.16,22.13 C42.16,22.13 42.16,22.77 42.16,22.77 C42.16,23.2 42.16,22.99 42.38,23.2 C42.38,23.2 42.59,23.41 42.59,23.41 C42.59,23.41 42.81,24.48 42.81,24.48 C43.23,24.48 43.66,24.69 43.87,25.12 C43.66,25.12 43.23,25.34 43.02,25.55 C42.59,25.98 44.09,26.83 43.02,27.05 C43.02,27.05 41.52,27.26 41.52,27.26 C41.31,28.54 42.16,28.11 42.38,29.4 C42.81,28.76 43.23,28.76 43.66,28.11 C44.52,27.26 44.09,27.47 45.16,27.05 C45.59,26.83 45.59,26.83 46.01,26.83 C46.01,26.83 45.8,27.9 45.8,27.9 C45.37,28.11 45.59,28.54 45.16,28.54 C45.16,28.54 43.87,28.76 43.87,28.76 C43.02,28.97 41.73,30.46 40.66,31.32 C38.95,32.6 38.95,35.38 40.88,36.45 C40.24,39.44 40.24,42.65 41.09,45.85 C43.66,55.25 51.8,60.17 60.78,61.45 C60.78,61.45 59.29,67.01 59.29,67.01 C55.01,68.93 50.3,70 45.59,70 C26.75,70 11.34,54.61 11.34,35.81 C11.34,32.39 11.77,28.97 12.84,25.76 C13.91,28.54 13.48,31.96 17.33,32.6 C18.4,32.82 19.47,34.95 22.04,35.59 C22.9,35.81 23.11,36.45 23.97,36.66 C24.61,36.88 24.83,37.09 24.61,37.52 C24.61,38.16 24.18,38.8 24.61,40.3 C25.25,42.22 26.75,42.22 26.97,43.5 C26.54,45.64 25.9,47.56 25.68,49.7 C25.47,52.69 26.32,52.9 27.18,53.33 C27.39,53.55 27.82,53.55 27.61,52.9 C27.61,52.48 27.61,52.26 27.82,51.62 C27.82,51.62 28.25,49.7 28.25,49.7 C29.53,47.56 32.1,45.85 33.6,43.71 C34.24,42.86 34.24,41.79 34.89,40.72 C35.1,40.3 35.31,40.08 34.89,39.65 C33.6,38.59 32.53,38.59 31.25,37.94 C31.25,37.94 31.25,37.73 31.25,37.73 C31.25,37.3 31.25,36.88 30.6,36.88 C30.6,36.88 29.53,36.66 29.53,36.66 C29.53,36.02 28.89,35.38 28.25,35.38 C28.25,35.38 23.54,35.59 23.54,35.59 C23.11,34.95 23.11,34.53 22.69,34.31 C22.26,34.1 22.47,33.46 22.26,33.03 C21.83,32.6 21.62,33.24 21.19,33.24 C20.12,33.24 20.33,32.39 20.33,31.75 C20.33,30.89 21.19,30.46 21.83,30.46 C22.9,30.46 23.11,30.89 23.54,31.11 C25.04,31.75 23.33,30.25 25.25,29.18 C25.68,28.97 25.25,28.33 25.47,27.9 C27.18,26.62 26.11,25.98 30.6,24.27 C29.53,23.2 28.89,21.28 27.39,20.85 C25.25,20.42 24.4,21.28 24.61,22.34 C24.61,22.34 24.61,23.84 24.61,23.84 C24.61,23.84 23.75,22.98 23.75,22.98 C22.47,21.7 21.62,22.56 20.97,20.85 C20.97,20.85 21.83,19.57 21.83,19.57 C22.47,19.99 22.9,19.99 23.54,19.57 C24.18,18.92 23.33,17.86 25.04,17.64 C24.83,20.21 26.75,20.42 28.46,18.92 C28.46,18.92 28.89,18.5 28.89,18.5 C26.75,17.43 26.11,15.72 24.4,14.65 C24.4,14.65 28.04,10.8 28.04,10.8 C23.54,9.95 22.47,11.02 20.76,11.87 C26.75,5.67 35.53,1.4 45.37,1.4z  M37.45 19.57 C38.1,19.99 37.67,20.63 38.31,20.85 C38.52,20.85 38.74,21.28 39.17,20.85 C39.59,20.42 40.24,20.21 40.45,19.78 C40.45,19.78 40.02,19.35 40.02,19.35 C39.81,18.92 39.59,18.92 39.17,18.92 C38.52,19.14 38.52,19.35 37.45,19.57z  M25.04 33.46 C25.04,33.24 25.25,33.24 25.25,33.03 C25.04,33.03 25.04,33.03 24.83,32.82 C24.61,32.82 24.4,32.82 24.18,32.6 C23.97,32.39 23.75,32.39 23.75,32.39 C23.11,32.39 23.11,32.82 23.54,33.03 C23.97,33.46 24.4,33.03 24.83,33.24 C24.83,33.24 25.04,33.46 25.04,33.46z  M26.11 33.24 C26.11,33.46 25.68,33.46 25.9,33.67 C26.97,34.1 27.82,34.31 28.89,34.95 C28.89,34.95 29.1,34.53 29.1,34.53 C28.03,33.67 26.96,33.88 26.11,33.24z  M26.97 15.29 C26.97,15.29 26.11,14.01 26.11,14.01 C27.18,13.37 27.61,11.44 28.68,11.44 C31.46,11.23 34.03,9.95 37.03,10.38 C37.03,10.38 37.88,10.59 37.88,10.59 C38.74,10.8 39.38,11.66 40.02,12.3 C39.38,12.73 38.74,13.37 38.74,14.01 C38.74,14.01 38.74,16.15 38.74,16.15 C37.24,17 37.67,18.92 34.89,19.14 C34.03,19.35 33.6,19.78 33.17,20.21 C32.53,20.85 33.39,21.49 32.1,21.49 C31.03,21.49 31.67,19.78 30.39,19.57 C29.32,18.28 29.96,16.79 29.53,15.51 C28.89,15.29 28.89,15.08 28.46,14.86 C28.03,14.44 28.04,14.44 27.39,14.86 C27.39,14.86 26.97,15.29 26.97,15.29z "/><path id="_R_G_L_2_G_D_3_P_0" fill="#646463" fill-opacity="1" fill-rule="nonzero" d=" M111.73 14.01 C111.94,14.22 111.94,14.22 112.15,14.01 C112.37,13.8 112.37,13.79 112.15,13.58 C107.02,8.67 98.03,5.67 86.9,5.03 C75.98,4.39 63.14,6.1 49.87,10.16 C49.44,10.38 49.23,10.38 49.01,10.38 C33.39,15.29 20.12,22.77 11.34,30.89 C2.57,39.01 -1.71,47.78 0.64,55.47 C1.71,59.1 4.49,62.31 8.34,64.66 C12.2,67.01 17.33,68.72 23.33,69.79 C23.54,69.79 23.76,69.79 23.76,69.57 C23.76,69.36 23.75,69.15 23.54,69.15 C17.55,68.29 12.62,66.58 8.77,64.23 C5.13,61.88 2.56,59.1 1.49,55.47 C-0.86,48.2 3.42,39.65 11.98,31.53 C20.54,23.41 33.81,16.15 49.23,11.23 C49.65,11.02 49.87,11.02 50.08,11.02 C63.35,6.96 76.19,5.25 86.9,5.89 C97.81,6.31 106.59,9.31 111.73,14.01z "/></g><g id="_R_G_L_1_G"><path id="_R_G_L_1_G_D_0_P_0" fill="#fab502" fill-opacity="1" fill-rule="nonzero" d=" M78.41 9.8 C81.11,9.8 83.31,7.61 83.31,4.9 C83.31,2.19 81.11,0 78.41,0 C75.7,0 73.51,2.19 73.51,4.9 C73.51,7.61 75.7,9.8 78.41,9.8z "/></g><g id="_R_G_L_0_G" transform=" translate(100, 40) translate(-85.5, -35)"><path id="_R_G_L_0_G_D_0_P_0" fill="#646463" fill-opacity="1" fill-rule="nonzero" d=" M170.8 17.86 C170.8,17.86 157.96,17.86 157.96,17.86 C115.15,17.86 112.15,57.4 143.19,57.4 C143.19,57.4 166.3,57.4 166.3,57.4 C166.3,57.4 160.74,51.84 160.74,51.84 C160.74,51.84 143.19,51.84 143.19,51.84 C134.41,51.84 132.7,45.43 135.7,36.46 C138.69,27.48 145.76,23.42 156.67,23.42 C156.67,23.42 165.45,23.42 165.45,23.42 C165.45,23.42 170.8,17.86 170.8,17.86z  M141.91 17.86 C141.91,17.86 79.41,17.86 79.41,17.86 C35.74,17.86 35.53,57.4 65.28,57.4 C74.91,57.4 81.97,54.41 84.11,46.07 C84.11,46.07 87.11,34.75 87.11,34.75 C87.11,34.75 71.06,34.75 71.06,34.75 C71.06,34.75 69.99,38.59 69.99,38.59 C76.19,39.24 74.05,52.91 63.57,52.7 C50.3,50.56 54.79,22.78 78.55,22.78 C78.55,22.78 102.74,22.78 102.74,22.78 C102.74,22.78 93.75,57.19 93.75,57.19 C93.75,57.19 107.23,57.19 107.23,57.19 C107.23,57.19 116.22,22.78 116.22,22.78 C116.22,22.78 130.77,22.78 130.77,22.78 C134.41,20.43 138.05,18.93 141.91,17.86z "/></g></g><g id="time_group"/></svg>